<svg width="62" height="63" viewBox="0 0 62 63" fill="none" xmlns="http://www.w3.org/2000/svg">
<mask id="mask0_1598_17464" style="mask-type:luminance" maskUnits="userSpaceOnUse" x="0" y="0" width="62" height="63">
<path d="M0 0H61.1819V63H0V0Z" fill="white"/>
</mask>
<g mask="url(#mask0_1598_17464)">
<path d="M52.3306 58.3738C50.0175 59.9272 47.2094 61.071 43.872 61.8136C43.5391 61.8989 43.1977 61.9672 42.8563 62.0355C41.3028 62.3342 39.7409 62.5476 38.1618 62.6756C36.6084 62.8207 34.961 62.8976 33.2283 62.9146C22.0042 63.0171 17.9414 58.4677 15.0735 52.2795C12.6494 47.0814 11.0618 40.7225 6.75996 34.9952C-2.67169 22.4482 1.26315 7.59652 18.8205 2.52648C36.3779 -2.54357 60.004 18.6243 60.7721 36.5658C61.216 47.0302 58.5785 54.1829 52.3306 58.3738Z" fill="#E6E9F4"/>
</g>
<path d="M49.9322 50.0346C47.6191 51.5795 44.8109 52.7233 41.465 53.4744C41.1322 53.5512 40.7993 53.6195 40.4579 53.6878C38.9044 53.9865 37.3424 54.1999 35.7634 54.3365C34.2099 54.4816 32.5626 54.5498 30.8299 54.5669C19.6058 54.6779 15.5429 50.1285 12.6665 43.9403C12.8287 42.9331 13.0677 41.9515 13.3749 40.987C13.998 39.4592 21.9274 36.4462 25.3075 35.2256C26.2378 34.8927 26.8182 34.6879 26.8182 34.6879H34.8842C34.8842 34.6879 35.2598 34.8074 35.8743 35.0122C38.6057 35.9341 46.1425 38.6398 47.6191 40.8334C48.3275 41.8833 48.9335 44.239 49.3945 46.7143C49.4798 47.1496 49.5566 47.5935 49.6249 48.0373C49.7359 48.7116 49.8383 49.3944 49.9322 50.0346Z" fill="#2488FF"/>
<path d="M41.4648 53.4744C41.132 53.5512 40.7991 53.6195 40.4577 53.6878C38.9042 53.9865 37.3422 54.1999 35.7632 54.3365C37.4788 49.6164 39.2712 44.6573 39.3139 44.5549C39.3993 44.3415 39.826 49.5822 39.826 49.5822L41.4648 53.4744Z" fill="#1362D3"/>
<path d="M45.6645 18.7353C45.6645 19.3072 45.5536 19.862 45.3231 20.3912C45.1012 20.9203 44.7854 21.3898 44.3757 21.7995C43.966 22.2092 43.488 22.5165 42.9503 22.7384C42.4125 22.9603 41.8492 23.0713 41.2688 23.0713C40.6884 23.0713 40.125 22.9603 39.5873 22.7384C39.0496 22.5165 38.5716 22.2092 38.1619 21.7995C37.7437 21.3898 37.4278 20.9203 37.2059 20.3912C36.984 19.862 36.873 19.3072 36.873 18.7353C36.873 18.1549 36.984 17.6001 37.2059 17.0709C37.4278 16.5417 37.7437 16.0722 38.1619 15.6625C38.5716 15.2614 39.0496 14.9455 39.5873 14.7236C40.125 14.5017 40.6884 14.3907 41.2688 14.3907C41.8492 14.3907 42.4125 14.5017 42.9503 14.7236C43.488 14.9455 43.966 15.2614 44.3757 15.6625C44.7854 16.0722 45.1012 16.5417 45.3231 17.0709C45.5536 17.6001 45.6645 18.1549 45.6645 18.7353Z" fill="#49142E"/>
<path d="M22.6277 22.3798C17.1053 17.9755 20.9889 11.1472 25.2481 12.069C29.806 7.50258 41.013 11.4801 40.7569 18.1463C40.5009 24.8039 38.0171 25.4782 36.6685 27.6206C35.3199 29.7544 29.2512 31.7688 27.5953 28.1242L22.6277 22.3798Z" fill="#6D2747"/>
<path d="M30.335 35.7208C28.167 36.0537 27.1598 35.3623 27.0488 34.6624C27.0061 34.0649 27.0061 33.4589 27.0317 32.8614C27.0659 31.9396 26.9891 31.0178 26.8184 30.1045L33.6382 26.9378C33.6382 26.9378 33.6894 27.5695 33.7662 28.4401C33.9028 29.9167 34.0991 32.0762 34.21 32.9553C34.3722 34.3551 32.503 35.3879 30.335 35.7208Z" fill="#FFC0B8"/>
<path d="M33.7662 28.4401C30.9495 33.5101 28.3291 33.9966 27.0317 32.8614C27.0659 31.9396 26.9891 31.0178 26.8184 30.1045L33.6382 26.9378C33.6382 26.9378 33.6894 27.5695 33.7662 28.4401Z" fill="#EF716F"/>
<path d="M25.2817 14.5614C25.2391 18.0012 28.124 18.4365 30.2238 18.7779C32.332 19.1108 34.4146 19.6827 34.7817 21.7397C35.1487 23.7882 35.2682 24.2491 35.7206 24.1382C36.173 24.0272 36.2242 21.4666 37.9654 21.6373C39.7066 21.808 39.7066 24.1211 38.2641 25.1027C37.4362 25.7087 36.5144 25.8879 35.5072 25.6489C35.5072 25.6489 33.3307 31.3677 27.7826 31.1287C22.2346 30.8897 22.3968 24.4028 22.3456 22.3628C22.2858 20.3228 23.0369 15.4491 25.2817 14.5614Z" fill="#FFC0B8"/>
<path d="M34.0992 31.9481C33.6809 33.8088 29.0377 35.1915 29.0547 35.6268C29.0633 36.0536 30.8386 38.5289 31.9653 38.2899C33.1005 38.0509 35.8489 35.6951 35.8916 34.9355C35.9343 34.1843 34.0309 31.9481 34.0309 31.9481H34.0992Z" fill="white"/>
<path d="M27.0317 32.7248C27.1341 35.1489 28.9437 35.2684 29.1656 35.6269C29.379 35.9768 27.6548 38.5801 27.1256 38.4521C26.5964 38.3241 25.4953 36.3353 25.3161 35.422C25.1454 34.5002 27.0317 32.7248 27.0317 32.7248Z" fill="white"/>
<path d="M49.9321 50.0346C47.619 51.5796 44.8109 52.7233 41.465 53.4744C41.1321 53.5512 40.7992 53.6195 40.4578 53.6878L39.8262 49.5823L49.6163 48.0374C49.7358 48.7117 49.8382 49.3945 49.9321 50.0346Z" fill="#FFC0B8"/>
</svg>
