<svg width="52" height="52" viewBox="0 0 52 52" fill="none" xmlns="http://www.w3.org/2000/svg">
<mask id="mask0_1739_14301" style="mask-type:luminance" maskUnits="userSpaceOnUse" x="0" y="0" width="52" height="52">
<path d="M0 0H51.9491V51.8814H0V0Z" fill="white"/>
</mask>
<g mask="url(#mask0_1739_14301)">
<path d="M51.7385 27.4852C51.8663 24.6668 51.4905 21.8108 50.5811 19.03C50.3331 18.2859 50.0399 17.5794 49.7093 16.8354C47.3869 9.07906 40.7955 2.44263 31.7991 0.623809C29.8075 0.210441 27.8609 0.03758 25.9519 0.127767C24.0429 0.03758 22.0963 0.210441 20.067 0.623809C11.1082 2.44263 4.47928 9.07906 2.19448 16.8729C1.86379 17.5794 1.61577 18.3235 1.36775 19.0675C0.413241 21.8484 0.0374503 24.6668 0.202798 27.5303C-0.000128135 32.2953 1.11972 37.1505 3.397 41.0061C7.74864 48.4693 16.9555 51.904 25.9519 51.4906C34.9483 51.904 44.1551 48.4693 48.5443 40.961C50.8291 37.1054 51.949 32.2577 51.7385 27.4852Z" fill="#ABC7FF"/>
</g>
<path d="M37.8117 13.6862C37.0676 12.9572 36.2635 12.2958 35.4067 11.7096C34.5423 11.1158 33.6329 10.6047 32.6784 10.1688C31.7239 9.74043 30.7394 9.3947 29.7247 9.13165C28.7101 8.87611 27.6729 8.70325 26.6282 8.62809C25.5835 8.54542 24.5388 8.56045 23.4941 8.66567C22.4495 8.77089 21.4198 8.95879 20.4127 9.24439C19.398 9.52998 18.421 9.89826 17.4815 10.3492C16.5345 10.8077 15.6402 11.3413 14.7909 11.9501C13.9491 12.5588 13.1599 13.2428 12.4384 13.9868C11.7094 14.7384 11.0555 15.5426 10.4768 16.4069C9.8981 17.2712 9.40206 18.1731 8.98869 19.1276C8.5678 20.0746 8.24463 21.0517 8.00412 22.0588C7.76362 23.0659 7.6133 24.0881 7.56069 25.1177C7.50056 26.1549 7.53814 27.1846 7.66591 28.2067C7.80119 29.2364 8.01915 30.2435 8.3273 31.228C8.64296 32.2201 9.0413 33.1746 9.52231 34.0916C9.58995 34.2268 9.70269 34.3245 9.853 34.3696C10.0033 34.4147 10.1536 34.3997 10.2889 34.3321C10.4317 34.2569 10.5294 34.1517 10.5745 34.0014C10.6196 33.8511 10.6121 33.7083 10.5369 33.573C9.28932 31.213 8.66551 28.7027 8.68054 26.0422C8.68054 25.1327 8.7557 24.2233 8.90602 23.329L10.7248 26.0572C11.0029 26.4781 11.3712 26.8013 11.8297 27.0192C12.2956 27.2372 12.7766 27.3198 13.2877 27.2672L13.6259 27.2372C14.1746 27.1846 14.633 27.3649 14.9938 27.7783L16.3166 29.2815C16.5496 29.5445 16.8276 29.755 17.1433 29.9128C17.4665 30.0781 17.8047 30.1683 18.1579 30.1984C18.5112 30.2284 18.8569 30.1984 19.2026 30.0932C19.5408 29.9879 19.849 29.8301 20.1271 29.6046C20.4052 29.3867 20.6306 29.1236 20.8035 28.8155C20.9764 28.5073 21.0891 28.1842 21.1342 27.8309C21.1793 27.4852 21.1567 27.1395 21.059 26.8013C20.9688 26.4555 20.8185 26.1474 20.6006 25.8693L19.9016 24.9449C19.5408 24.4638 19.4732 23.9528 19.6987 23.3966V23.3891C20.0519 22.5248 19.9768 21.7056 19.4732 20.9164L18.2632 19.0299C18.0678 18.7218 17.9851 18.3911 18.0151 18.0379C18.0452 17.6771 18.188 17.3689 18.436 17.1059L20.9012 14.4603C21.3822 13.9418 21.6227 13.333 21.6227 12.6265V10.0937C22.2616 9.95087 22.9079 9.85316 23.5543 9.78552L26.2975 12.6566C27.004 13.4006 27.2596 14.2724 27.0717 15.2645L26.6658 17.3614C26.5305 18.098 26.5831 18.8195 26.8462 19.526C27.1017 20.2325 27.5301 20.8262 28.1164 21.2997L28.1539 21.3298C29.2362 22.2091 30.4538 22.4872 31.8141 22.1565L34.1816 21.5853C34.4146 21.5252 34.6401 21.5628 34.8505 21.683C35.0609 21.8108 35.1962 21.9836 35.2563 22.2241L35.79 24.2835C35.9027 24.7119 36.0906 25.0952 36.3687 25.4409C36.6468 25.7791 36.985 26.0572 37.3758 26.2601C37.7741 26.463 38.195 26.5758 38.6385 26.5983C39.0819 26.6284 39.5103 26.5607 39.9312 26.4104C40.0815 26.3503 40.1867 26.2526 40.2468 26.1098C40.3145 25.9745 40.322 25.8242 40.2619 25.6814C40.2093 25.5386 40.104 25.4334 39.9612 25.3657C39.8184 25.3056 39.6756 25.2981 39.5253 25.3507C39.2623 25.4484 38.9917 25.4935 38.7061 25.4785C38.4205 25.4634 38.1574 25.3883 37.9094 25.2605C37.6539 25.1327 37.4434 24.9524 37.2631 24.7344C37.0902 24.5165 36.9699 24.2759 36.9023 24.0054L36.3687 21.9461C36.301 21.683 36.1883 21.45 36.023 21.2396C35.8651 21.0291 35.6697 20.8563 35.4367 20.721C35.2113 20.5857 34.9632 20.4955 34.6927 20.4579C34.4296 20.4128 34.1666 20.4279 33.9035 20.488L31.5436 21.0592C30.5515 21.2997 29.6646 21.0968 28.883 20.4654L28.8454 20.4354C28.417 20.0897 28.1088 19.6537 27.9209 19.1427C27.733 18.6316 27.688 18.1055 27.7932 17.5719L28.1915 15.475C28.4546 14.0996 28.1013 12.9046 27.1318 11.8899L25.0424 9.70285C25.1176 9.70285 25.1927 9.69533 25.2679 9.69533C25.9443 9.69533 26.6207 9.74043 27.2896 9.8231C27.9585 9.90578 28.6274 10.026 29.2813 10.1839C29.9352 10.3492 30.5815 10.5521 31.2129 10.7851C31.8442 11.0256 32.4605 11.3037 33.0542 11.6194C33.6555 11.9275 34.2267 12.2808 34.7829 12.6566C35.339 13.0399 35.8651 13.4532 36.3687 13.9042C36.8722 14.3476 37.3457 14.8211 37.7892 15.3247C38.2326 15.8282 38.6385 16.3543 39.0218 16.9105C39.3975 17.4591 39.7433 18.0303 40.0439 18.6241C40.3521 19.2178 40.6226 19.8341 40.8556 20.4579C41.0886 21.0817 41.2765 21.7206 41.4343 22.3669C41.5846 23.0208 41.6974 23.6747 41.765 24.3361C41.8402 24.9975 41.8702 25.6664 41.8552 26.3278C41.8477 26.9967 41.7951 27.6581 41.7049 28.3194C41.6072 28.9808 41.4719 29.6347 41.299 30.2735C41.1262 30.9199 40.9157 31.5512 40.6602 32.1675H39.9612C39.1119 32.1675 38.3679 32.4381 37.714 32.9642L33.5127 36.3839C32.8212 36.9476 32.0471 37.0828 31.1903 36.7822L26.9364 35.2866C26.0645 34.9784 25.2002 35.0085 24.3434 35.3768L21.9083 36.4215C21.3972 36.6394 20.8711 36.677 20.33 36.5267C19.7889 36.3839 19.353 36.0908 19.0223 35.6473L17.722 33.8811C17.3462 33.37 16.8577 32.9867 16.264 32.7312C15.6702 32.4832 15.0539 32.393 14.4151 32.4757C13.7762 32.5583 13.1975 32.7988 12.694 33.1897C12.1829 33.5805 11.8146 34.0765 11.5741 34.6703L11.0179 35.9555L11.0104 35.9705V35.978C10.9278 36.1734 10.9503 36.3613 11.0781 36.5342C12.7315 38.6912 14.7758 40.3823 17.211 41.6149C17.8874 41.9531 18.5788 42.2462 19.2928 42.5017C19.9993 42.7497 20.7283 42.9527 21.4649 43.1105C22.2014 43.2758 22.9455 43.3886 23.6971 43.4487C24.4562 43.5163 25.2077 43.5389 25.9593 43.5088C26.7184 43.4788 27.47 43.4036 28.2141 43.2758C28.9581 43.1556 29.6947 42.9827 30.4162 42.7648C31.1377 42.5543 31.8442 42.2913 32.5356 41.9831C33.2196 41.6825 33.8885 41.3368 34.5348 40.946C35.1812 40.5551 35.7975 40.1267 36.3837 39.6608C36.9699 39.1948 37.5261 38.6912 38.0522 38.1576C38.5783 37.6165 39.0593 37.0528 39.5103 36.4515C39.9612 35.8578 40.3746 35.234 40.7429 34.5801C41.1111 33.9337 41.4343 33.2648 41.7199 32.5734C42.0055 31.8819 42.2385 31.1754 42.4264 30.4539C42.6218 29.7399 42.7646 29.0109 42.8623 28.2668C42.96 27.5303 43.0051 26.7862 43.0051 26.0422C43.0126 23.7273 42.5617 21.4951 41.6673 19.3531C40.7654 17.2111 39.4802 15.3247 37.8117 13.6862ZM20.4803 12.6265C20.4803 13.0399 20.3375 13.4006 20.0519 13.7012L17.5943 16.3393C17.1734 16.7902 16.9329 17.3238 16.8803 17.9401C16.8201 18.5489 16.9629 19.1126 17.2936 19.6312L18.5112 21.5177C18.8043 21.9761 18.8494 22.4646 18.639 22.9682V22.9757C18.2556 23.9227 18.3684 24.8021 18.9847 25.6213L19.6912 26.5457C19.9467 26.8839 20.0519 27.2672 19.9993 27.6956C19.9467 28.1165 19.7513 28.4622 19.4131 28.7328C19.0749 28.9959 18.6916 29.1161 18.2556 29.0785C17.8272 29.041 17.4665 28.8606 17.1809 28.5374L15.8581 27.0342C15.2343 26.3353 14.4527 26.0271 13.5132 26.1173L13.1825 26.1474C12.5361 26.2075 12.0326 25.9745 11.6793 25.4409L9.24422 21.7807C9.6125 20.4429 10.1461 19.1652 10.8451 17.9627C11.5441 16.7527 12.3858 15.6478 13.3704 14.6557C14.355 13.6561 15.4447 12.7994 16.6473 12.0778C17.8573 11.3488 19.1275 10.7926 20.4803 10.3868V12.6265ZM37 37.6014C35.7599 38.8265 34.362 39.8261 32.7987 40.6077C31.2354 41.3894 29.5894 41.9155 27.8608 42.1861C26.1322 42.4566 24.4036 42.4566 22.6674 42.1936C20.9388 41.923 19.2928 41.3969 17.7295 40.6077C15.55 39.5104 13.7086 38.0073 12.1979 36.1058L12.6338 35.0987L12.6414 35.0836C12.9796 34.2118 13.6184 33.7158 14.5579 33.5955C15.4974 33.4753 16.2414 33.7909 16.7976 34.5425L18.0978 36.3087C18.5863 36.9626 19.2327 37.3985 20.0294 37.6165C20.826 37.8269 21.6077 37.7743 22.3668 37.4511L24.8019 36.4064C25.3806 36.1584 25.9593 36.1434 26.5531 36.3463L30.807 37.8495C31.1903 37.9772 31.5811 38.0449 31.987 38.0449C32.8363 38.0449 33.5878 37.7818 34.2417 37.2557L38.443 33.836C38.879 33.4753 39.39 33.2949 39.9612 33.2949H40.1491C39.3374 34.9033 38.2852 36.3388 37 37.6014Z" fill="#F5F5F5"/>
<path d="M31.8746 30.0856L31.2057 30.1007C31.0478 30.1082 30.9201 30.1608 30.8073 30.2735C30.6946 30.3863 30.642 30.514 30.6495 30.6719C30.6495 30.8222 30.7021 30.9575 30.8148 31.0627C30.9276 31.1754 31.0629 31.228 31.2207 31.228H31.2282L31.8971 31.213C32.2504 31.2055 32.5961 31.1303 32.9193 30.9875C33.2424 30.8447 33.528 30.6418 33.7761 30.3863C34.0166 30.1307 34.1969 29.8376 34.3172 29.5069C34.445 29.1762 34.4901 28.8305 34.475 28.4773C34.4374 27.8384 34.1894 27.2823 33.731 26.8238C33.28 26.3578 32.7238 26.0948 32.07 26.0346L30.7848 25.9294C30.5819 25.9069 30.394 25.8543 30.2136 25.7641L28.9209 25.0801C28.6954 24.9674 28.4549 24.8772 28.2144 24.8171C27.9664 24.7645 27.7183 24.7344 27.4628 24.7419C27.2073 24.7419 26.9592 24.7795 26.7112 24.8471C26.4707 24.9148 26.2377 25.0125 26.0198 25.1327C25.8018 25.2605 25.5989 25.4108 25.4185 25.5837C25.2381 25.7566 25.0803 25.952 24.9525 26.1699C24.8172 26.3804 24.7195 26.6058 24.6444 26.8463C24.5692 27.0869 24.5316 27.3274 24.5241 27.5829L24.4565 29.1988C24.449 29.4318 24.4715 29.6723 24.5241 29.9053C24.5692 30.1383 24.6444 30.3637 24.7496 30.5817C24.8548 30.7996 24.9901 30.9951 25.1404 31.183C25.2983 31.3633 25.4711 31.5287 25.6665 31.6715C25.8619 31.8143 26.0724 31.9345 26.2903 32.0247C26.5158 32.1224 26.7488 32.1826 26.9893 32.2201C27.2298 32.2577 27.4703 32.2652 27.7108 32.2427C27.9513 32.2276 28.1918 32.175 28.4173 32.0999C28.5676 32.0473 28.6804 31.9571 28.748 31.8143C28.8232 31.6715 28.8307 31.5287 28.7781 31.3859C28.7255 31.2356 28.6277 31.1303 28.4849 31.0552C28.3497 30.9875 28.1993 30.98 28.049 31.0326C27.7634 31.1303 27.4703 31.1529 27.1697 31.1078C26.8691 31.0627 26.591 30.95 26.3505 30.7696C26.1024 30.5892 25.9145 30.3637 25.7868 30.0932C25.6515 29.8226 25.5914 29.537 25.6064 29.2364L25.6665 27.6205C25.674 27.3048 25.7642 27.0192 25.9296 26.7486C26.0949 26.4781 26.3129 26.2676 26.591 26.1098C26.8691 25.952 27.1622 25.8693 27.4853 25.8693C27.801 25.8618 28.1016 25.9294 28.3797 26.0797L29.68 26.7562C29.9956 26.9215 30.3263 27.0192 30.6796 27.0493L31.9723 27.162C32.3405 27.1921 32.6562 27.3424 32.9117 27.6054C33.1673 27.8685 33.3101 28.1766 33.3326 28.5449C33.3552 28.9583 33.2199 29.319 32.9343 29.6197C32.6487 29.9278 32.2954 30.0781 31.8746 30.0856Z" fill="#F5F5F5"/>
</svg>
