<svg width="59" height="54" viewBox="0 0 59 54" fill="none" xmlns="http://www.w3.org/2000/svg">
<mask id="mask0_1739_14328" style="mask-type:luminance" maskUnits="userSpaceOnUse" x="0" y="0" width="59" height="54">
<path d="M0 0H58.9989V53.8731H0V0Z" fill="white"/>
</mask>
<g mask="url(#mask0_1739_14328)">
<path d="M18.7668 50.0852C4.69729 45.1247 -2.98383 29.8376 1.78117 15.8057C5.04302 6.23809 13.6561 -2.49525 35.4444 2.15702C53.0087 5.92994 58.3149 15.2345 58.5404 24.7645C58.9312 42.1485 42.6294 55.226 25.4183 51.8363C23.1861 51.453 20.9539 50.8443 18.7668 50.0852Z" fill="#FFA9B0"/>
</g>
<mask id="mask1_1739_14328" style="mask-type:luminance" maskUnits="userSpaceOnUse" x="10" y="6" width="36" height="33">
<path d="M10.2065 6.73419H45.7347V38.4558H10.2065V6.73419Z" fill="white"/>
</mask>
<g mask="url(#mask1_1739_14328)">
<path d="M45.0604 32.7789L31.2219 8.63086C30.8849 8.04269 30.4289 7.58008 29.8473 7.24304C29.2657 6.906 28.6379 6.74078 27.9704 6.74078C27.2964 6.74078 26.6685 6.906 26.087 7.24304C25.5054 7.58008 25.0494 8.04269 24.7124 8.63086L10.8738 32.7789C10.5368 33.3605 10.3716 33.9949 10.3716 34.669C10.3716 35.3431 10.5368 35.9775 10.8738 36.5591C11.2109 37.1472 11.6669 37.6098 12.2484 37.9469C12.83 38.2839 13.4578 38.4491 14.1253 38.4491H39.1787C39.3373 38.4491 39.4695 38.3963 39.5819 38.2839C39.6876 38.1716 39.7471 38.0394 39.7471 37.8808C39.7471 37.7222 39.6876 37.59 39.5819 37.4777C39.4695 37.3653 39.3373 37.3058 39.1787 37.3058H14.1253C13.6561 37.3058 13.2199 37.1869 12.8168 36.9556C12.4137 36.7177 12.0898 36.3938 11.8585 35.9907C11.6206 35.581 11.5083 35.1382 11.5083 34.669C11.5083 34.1932 11.6206 33.757 11.8585 33.3472L25.6971 9.19921C25.9284 8.79608 26.2522 8.47225 26.6553 8.23434C27.0651 8.00304 27.5012 7.88408 27.9704 7.88408C28.433 7.88408 28.8692 8.00304 29.279 8.23434C29.6821 8.47225 30.0059 8.79608 30.2372 9.19921L44.0757 33.3472C44.3137 33.757 44.426 34.1932 44.426 34.669C44.426 35.1382 44.3137 35.581 44.0757 35.9907C43.8444 36.3938 43.5206 36.7177 43.1175 36.9556C42.7144 37.1869 42.2782 37.3058 41.809 37.3058C41.6504 37.3058 41.5182 37.3653 41.4058 37.4777C41.2935 37.59 41.2406 37.7222 41.2406 37.8808C41.2406 38.0394 41.2935 38.1716 41.4058 38.2839C41.5182 38.3963 41.6504 38.4491 41.809 38.4491C42.4764 38.4491 43.1043 38.2839 43.6858 37.9469C44.2674 37.6098 44.7234 37.1472 45.0604 36.5591C45.3975 35.9775 45.5627 35.3431 45.5627 34.669C45.5627 33.9949 45.3975 33.3605 45.0604 32.7789Z" fill="#F5F5F5"/>
<path d="M29.3432 32.6906C29.3209 33.0156 29.1499 33.1781 28.8228 33.1781H27.5219C27.1948 33.1781 27.0238 33.0156 27.0015 32.6906C26.9866 32.5134 26.9123 32.3656 26.7785 32.2475C26.6447 32.1367 26.496 32.085 26.3176 32.0924C26.1392 32.1072 25.9979 32.181 25.879 32.3139C25.7675 32.4469 25.7154 32.602 25.7229 32.7792C25.76 33.2445 25.9459 33.6433 26.2953 33.9683C26.6372 34.2933 27.0461 34.4557 27.5219 34.4557H28.8228C29.2986 34.4557 29.7075 34.2933 30.0495 33.9683C30.3989 33.6433 30.5847 33.2445 30.6219 32.7792L30.7185 31.376C30.7334 31.1249 30.7036 30.8885 30.6144 30.6522C30.5327 30.4159 30.4063 30.2091 30.2353 30.0244C30.0643 29.8398 29.8636 29.6995 29.6406 29.6035C29.4101 29.5001 29.1722 29.4557 28.9195 29.4557H27.4253C27.2468 29.4557 27.0982 29.5148 26.9718 29.6404C26.8454 29.7659 26.7859 29.9137 26.7859 30.0909C26.7859 30.2682 26.8454 30.4159 26.9718 30.5414C27.0982 30.667 27.2468 30.7334 27.4253 30.7334H28.9195C29.0682 30.7334 29.202 30.7851 29.3061 30.8959C29.4027 31.0067 29.4547 31.1396 29.4399 31.2874L29.3432 32.6906Z" fill="#F5F5F5"/>
<path d="M30.1288 18.8431C30.283 18.8571 30.4115 18.8081 30.5271 18.6961C30.6428 18.5841 30.707 18.4511 30.7199 18.2831C30.7327 18.045 30.7006 17.814 30.6299 17.5899C30.5593 17.3659 30.45 17.1699 30.3023 16.9948C30.1545 16.8268 29.981 16.6938 29.7818 16.5958C29.5891 16.5048 29.3835 16.4557 29.1651 16.4557H26.2803C26.0618 16.4557 25.8562 16.5048 25.6635 16.5958C25.4643 16.6938 25.2908 16.8268 25.143 16.9948C24.9953 17.1699 24.8861 17.3659 24.8154 17.5899C24.7447 17.814 24.7126 18.045 24.7254 18.2831L25.2651 26.8665C25.2908 27.3146 25.4579 27.6856 25.7534 27.9937C26.0554 28.3017 26.4088 28.4557 26.82 28.4557H28.6318C29.0366 28.4557 29.3899 28.3017 29.6919 27.9937C29.9874 27.6856 30.1545 27.3146 30.1802 26.8665L30.5528 20.9645C30.5593 20.7965 30.5143 20.6494 30.4179 20.5234C30.3151 20.3974 30.1866 20.3274 30.0388 20.3204C29.8846 20.3064 29.7497 20.3554 29.6341 20.4674C29.5184 20.5794 29.4606 20.7125 29.4477 20.8805L29.0815 26.7825C29.0623 27.0905 28.9081 27.2445 28.6318 27.2445H26.82C26.5373 27.2445 26.3831 27.0905 26.3638 26.7825L25.8305 18.199C25.8177 18.052 25.8626 17.933 25.9526 17.828C26.0425 17.723 26.1518 17.6669 26.2803 17.6669H29.1651C29.2935 17.6669 29.4092 17.723 29.4927 17.828C29.5827 17.933 29.6276 18.052 29.6148 18.199C29.6084 18.3671 29.6533 18.5141 29.7497 18.6401C29.8525 18.7661 29.9746 18.8291 30.1288 18.8431Z" fill="#F5F5F5"/>
</g>
</svg>
