<svg width="61" height="54" viewBox="0 0 61 54" fill="none" xmlns="http://www.w3.org/2000/svg">
<mask id="mask0_1739_14280" style="mask-type:luminance" maskUnits="userSpaceOnUse" x="0" y="0" width="61" height="54">
<path d="M0 0H60.1488V53.8731H0V0Z" fill="white"/>
</mask>
<g mask="url(#mask0_1739_14280)">
<path d="M19.917 50.0852C5.85496 45.1247 -1.83368 29.8376 2.93132 15.8057C6.20069 6.23809 14.8063 -2.49525 36.602 2.15702C54.1664 5.92994 59.465 15.2345 59.698 24.7645C60.0813 42.1485 43.7871 55.226 26.5685 51.8363C24.3438 51.453 22.1116 50.8443 19.917 50.0852Z" fill="#9191CA"/>
</g>
<path d="M33.3335 30.5667H29.2374C29.0796 30.5667 28.9368 30.6193 28.824 30.7321C28.7113 30.8373 28.6587 30.9726 28.6587 31.1229C28.6587 31.2807 28.7113 31.4085 28.824 31.5212C28.9368 31.6264 29.0796 31.679 29.2374 31.679H33.3335C33.4913 31.679 33.6266 31.6264 33.7394 31.5212C33.8521 31.4085 33.9122 31.2807 33.9122 31.1229C33.9122 30.9726 33.8521 30.8373 33.7394 30.7321C33.6266 30.6193 33.4913 30.5667 33.3335 30.5667Z" fill="#F5F5F5"/>
<path d="M34.8592 27.8686C35.0246 27.8686 35.1599 27.816 35.2726 27.7032C35.3853 27.598 35.4379 27.4627 35.4379 27.3124C35.4379 27.1546 35.3853 27.0268 35.2726 26.9141C35.1599 26.8088 35.0246 26.7487 34.8592 26.7487H27.7042C27.5464 26.7487 27.4111 26.8088 27.2984 26.9141C27.1856 27.0268 27.1255 27.1546 27.1255 27.3124C27.1255 27.4627 27.1856 27.598 27.2984 27.7032C27.4111 27.816 27.5464 27.8686 27.7042 27.8686H34.8592Z" fill="#F5F5F5"/>
<path d="M33.3335 22.9382H29.2374C29.0796 22.9382 28.9368 22.9908 28.824 23.1036C28.7113 23.2088 28.6587 23.3441 28.6587 23.4944C28.6587 23.6522 28.7113 23.78 28.824 23.8927C28.9368 23.998 29.0796 24.0506 29.2374 24.0506H33.3335C33.4913 24.0506 33.6266 23.998 33.7394 23.8927C33.8521 23.78 33.9122 23.6522 33.9122 23.4944C33.9122 23.3441 33.8521 23.2088 33.7394 23.1036C33.6266 22.9908 33.4913 22.9382 33.3335 22.9382Z" fill="#F5F5F5"/>
<path d="M31.2816 20.6684C31.447 20.6684 31.5823 20.6158 31.695 20.5106C31.8077 20.3979 31.8603 20.2701 31.8603 20.1123C31.8603 19.962 31.8077 19.8267 31.695 19.7214C31.5823 19.6087 31.447 19.5561 31.2816 19.5561C30.9359 19.5561 30.6052 19.4809 30.2895 19.3381C29.9739 19.1953 29.7033 18.9999 29.4778 18.7369C29.2599 18.4813 29.102 18.1882 29.0119 17.865C28.9292 17.5344 28.9142 17.2112 28.9818 16.8805C29.0419 16.5498 29.1772 16.2492 29.3801 15.9711C29.5831 15.7005 29.8311 15.4825 30.1392 15.3172C30.4399 15.1519 30.7706 15.0541 31.1163 15.0316C31.462 15.0091 31.8002 15.0541 32.1234 15.1744C32.4466 15.2947 32.7322 15.475 32.9727 15.7231C33.2132 15.9636 33.3936 16.2416 33.5063 16.5573C33.619 16.8805 33.6566 17.2037 33.619 17.5419C33.5815 17.8726 33.4687 18.1807 33.2883 18.4738C33.2057 18.6016 33.1831 18.7444 33.2207 18.8947C33.2508 19.045 33.3409 19.1578 33.4762 19.2404C33.6115 19.3231 33.7618 19.3457 33.9121 19.3081C34.07 19.2705 34.1902 19.1878 34.2729 19.0525C34.5435 18.6241 34.7088 18.1582 34.7689 17.6621C34.8216 17.1661 34.7689 16.6776 34.6036 16.1965C34.4307 15.7231 34.1677 15.3022 33.8069 14.9414C33.4462 14.5807 33.0253 14.3101 32.5368 14.1297C32.0482 13.9493 31.5522 13.8817 31.0336 13.9193C30.515 13.9493 30.0265 14.0921 29.568 14.3401C29.1171 14.5882 28.7413 14.9113 28.4331 15.3172C28.1325 15.7306 27.9371 16.1815 27.8394 16.6776C27.7417 17.1661 27.7642 17.6546 27.892 18.1431C28.0273 18.6317 28.2603 19.0676 28.591 19.4509C28.9217 19.8417 29.3275 20.1423 29.7935 20.3528C30.267 20.5632 30.763 20.6684 31.2816 20.6684Z" fill="#F5F5F5"/>
<path d="M42.1568 29.0034C42.3222 29.0034 42.4575 28.9433 42.5702 28.838C42.6829 28.7253 42.7356 28.5975 42.7356 28.4397V26.7411C42.7356 26.5833 42.6829 26.4555 42.5702 26.3428C42.4575 26.2376 42.3222 26.1775 42.1568 26.1775C41.999 26.1775 41.8637 26.2376 41.751 26.3428C41.6383 26.4555 41.5781 26.5833 41.5781 26.7411V28.4397C41.5781 28.5975 41.6383 28.7253 41.751 28.838C41.8637 28.9433 41.999 29.0034 42.1568 29.0034Z" fill="#F5F5F5"/>
<path d="M42.1568 33.8135C42.3222 33.8135 42.4575 33.7609 42.5702 33.6557C42.6829 33.543 42.7356 33.4152 42.7356 33.2574V31.5513C42.7356 31.401 42.6829 31.2657 42.5702 31.1605C42.4575 31.0477 42.3222 30.9951 42.1568 30.9951C41.999 30.9951 41.8637 31.0477 41.751 31.1605C41.6383 31.2657 41.5781 31.401 41.5781 31.5513V33.2574C41.5781 33.4152 41.6383 33.543 41.751 33.6557C41.8637 33.7609 41.999 33.8135 42.1568 33.8135Z" fill="#F5F5F5"/>
<path d="M42.1568 38.6312C42.3222 38.6312 42.4575 38.5786 42.5702 38.4658C42.6829 38.3606 42.7356 38.2253 42.7356 38.075V36.3689C42.7356 36.2111 42.6829 36.0833 42.5702 35.9706C42.4575 35.8654 42.3222 35.8127 42.1568 35.8127C41.999 35.8127 41.8637 35.8654 41.751 35.9706C41.6383 36.0833 41.5781 36.2111 41.5781 36.3689V38.075C41.5781 38.2253 41.6383 38.3606 41.751 38.4658C41.8637 38.5786 41.999 38.6312 42.1568 38.6312Z" fill="#F5F5F5"/>
<mask id="mask1_1739_14280" style="mask-type:luminance" maskUnits="userSpaceOnUse" x="13" y="7" width="37" height="35">
<path d="M13.3638 7.25275H49.4395V41.8855H13.3638V7.25275Z" fill="white"/>
</mask>
<g mask="url(#mask1_1739_14280)">
<path d="M48.8307 40.7582H47.275V24.0506C47.523 24.0506 47.756 23.9905 47.9739 23.8702C48.1919 23.7575 48.3723 23.5996 48.5076 23.4042C48.6429 23.2013 48.7255 22.9833 48.7556 22.7428C48.7781 22.5023 48.7481 22.2694 48.6504 22.0514L46.2603 16.2567C46.0123 15.6404 45.5388 15.3323 44.8549 15.3398H38.2034V13.3181C38.1959 12.9573 38.0832 12.6266 37.8577 12.3335C37.6322 12.0404 37.3316 11.8374 36.9708 11.7322L31.8601 10.2892V7.82402C31.8601 7.66619 31.8075 7.53842 31.6948 7.42568C31.582 7.32046 31.4467 7.26785 31.2814 7.26785C31.1236 7.26785 30.9883 7.32046 30.8755 7.42568C30.7628 7.53842 30.7027 7.66619 30.7027 7.82402V10.2892L25.5919 11.7322C25.2312 11.8374 24.9381 12.0404 24.7126 12.3335C24.4796 12.6266 24.3669 12.9573 24.3669 13.3181V22.9383H15.3179C15.1976 22.9383 15.0924 22.8856 15.0248 22.7879C14.9571 22.6827 14.9421 22.5775 14.9872 22.4648L17.3847 16.6701C17.4373 16.5273 17.5501 16.4521 17.7154 16.4521H22.067C22.2249 16.4521 22.3602 16.3995 22.4729 16.2868C22.5856 16.1816 22.6458 16.0463 22.6458 15.896C22.6458 15.7381 22.5856 15.6104 22.4729 15.4976C22.3602 15.3924 22.2249 15.3398 22.067 15.3398H17.7154C17.024 15.3323 16.558 15.6404 16.31 16.2567L13.9124 22.0514C13.8222 22.2694 13.7922 22.5023 13.8147 22.7428C13.8373 22.9833 13.9199 23.2013 14.0627 23.4042C14.198 23.5996 14.3784 23.7575 14.5964 23.8702C14.8143 23.9905 15.0473 24.0506 15.2953 24.0506V40.7582H13.9425C13.7771 40.7582 13.6419 40.8108 13.5291 40.9235C13.4164 41.0287 13.3638 41.164 13.3638 41.3143C13.3638 41.4722 13.4164 41.5999 13.5291 41.7127C13.6419 41.8179 13.7771 41.8705 13.9425 41.8705H48.8307C48.9886 41.8705 49.1239 41.8179 49.2366 41.7127C49.3493 41.5999 49.4095 41.4722 49.4095 41.3143C49.4095 41.164 49.3493 41.0287 49.2366 40.9235C49.1239 40.8108 48.9886 40.7582 48.8307 40.7582ZM44.8549 16.4521C45.0127 16.4521 45.1255 16.5273 45.1856 16.6701L47.5756 22.4648C47.6282 22.5775 47.6132 22.6827 47.5455 22.7879C47.4704 22.8856 47.3727 22.9383 47.2449 22.9383H40.4657C40.3003 22.9383 40.1651 22.9909 40.0523 23.1036C39.9396 23.2088 39.887 23.3441 39.887 23.4944C39.887 23.6523 39.9396 23.78 40.0523 23.8928C40.1651 23.998 40.3003 24.0506 40.4657 24.0506H46.1175V40.7582H38.2034V16.4521H44.8549ZM25.5243 13.3181C25.5243 13.055 25.6596 12.8821 25.9226 12.807L31.2814 11.2888L36.6477 12.807C36.9107 12.8821 37.046 13.055 37.046 13.3181V40.7582H29.1018V35.5122C29.1018 35.2867 29.2221 35.174 29.4551 35.174H33.1077C33.3482 35.174 33.4685 35.2867 33.4685 35.5122V38.7966C33.4685 38.9469 33.5211 39.0822 33.6338 39.1874C33.7466 39.3001 33.8819 39.3527 34.0472 39.3527C34.205 39.3527 34.3403 39.3001 34.4531 39.1874C34.5658 39.0822 34.6259 38.9469 34.6259 38.7966V35.5122C34.6259 35.1138 34.4756 34.7681 34.1825 34.4825C33.8819 34.1969 33.5286 34.0541 33.1077 34.0541H29.4551C29.0417 34.0541 28.6809 34.1969 28.3878 34.4825C28.0947 34.7681 27.9444 35.1138 27.9444 35.5122V40.7582H25.5243V13.3181ZM16.4528 24.0506H24.3669V40.7582H16.4528V24.0506Z" fill="#F5F5F5"/>
</g>
<path d="M20.4064 26.1775C20.2485 26.1775 20.1132 26.2376 20.0005 26.3428C19.8878 26.4555 19.8276 26.5833 19.8276 26.7411V28.4397C19.8276 28.5975 19.8878 28.7253 20.0005 28.838C20.1132 28.9433 20.2485 29.0034 20.4064 29.0034C20.5717 29.0034 20.707 28.9433 20.8197 28.838C20.9325 28.7253 20.9851 28.5975 20.9851 28.4397V26.7411C20.9851 26.5833 20.9325 26.4555 20.8197 26.3428C20.707 26.2376 20.5717 26.1775 20.4064 26.1775Z" fill="#F5F5F5"/>
<path d="M20.4064 30.9951C20.2485 30.9951 20.1132 31.0477 20.0005 31.1605C19.8878 31.2657 19.8276 31.401 19.8276 31.5513V33.2574C19.8276 33.4152 19.8878 33.543 20.0005 33.6557C20.1132 33.7609 20.2485 33.8135 20.4064 33.8135C20.5717 33.8135 20.707 33.7609 20.8197 33.6557C20.9325 33.543 20.9851 33.4152 20.9851 33.2574V31.5513C20.9851 31.401 20.9325 31.2657 20.8197 31.1605C20.707 31.0477 20.5717 30.9951 20.4064 30.9951Z" fill="#F5F5F5"/>
<path d="M20.4064 35.8127C20.2485 35.8127 20.1132 35.8654 20.0005 35.9706C19.8878 36.0833 19.8276 36.2111 19.8276 36.3689V38.075C19.8276 38.2253 19.8878 38.3606 20.0005 38.4658C20.1132 38.5786 20.2485 38.6312 20.4064 38.6312C20.5717 38.6312 20.707 38.5786 20.8197 38.4658C20.9325 38.3606 20.9851 38.2253 20.9851 38.075V36.3689C20.9851 36.2111 20.9325 36.0833 20.8197 35.9706C20.707 35.8654 20.5717 35.8127 20.4064 35.8127Z" fill="#F5F5F5"/>
</svg>
