<svg width="52" height="52" viewBox="0 0 52 52" fill="none" xmlns="http://www.w3.org/2000/svg">
<mask id="mask0_1739_14309" style="mask-type:luminance" maskUnits="userSpaceOnUse" x="0" y="0" width="52" height="52">
<path d="M0 0H51.9491V51.8739H0V0Z" fill="white"/>
</mask>
<g mask="url(#mask0_1739_14309)">
<path d="M51.7388 27.4927C51.8666 24.6668 51.4908 21.8108 50.5814 19.03C50.3333 18.2859 50.0402 17.5794 49.7095 16.8354C47.3872 9.07908 40.7958 2.45016 31.7994 0.623827C29.8077 0.21046 27.8612 0.0451111 25.9521 0.127785C24.0507 0.0451111 22.0965 0.21046 20.0673 0.623827C11.1085 2.45016 4.47956 9.07908 2.19476 16.8729C1.86407 17.5794 1.61605 18.3235 1.36803 19.0751C0.413521 21.8484 0.0452491 24.6668 0.210595 27.5303C0.000155345 32.2953 1.12001 37.1505 3.39729 41.0061C7.75644 48.4693 16.9558 51.9115 25.9521 51.4906C34.9485 51.9115 44.1554 48.4693 48.5521 40.961C50.8294 37.1054 51.9492 32.2578 51.7388 27.4927Z" fill="#AFAEF7"/>
</g>
<mask id="mask1_1739_14309" style="mask-type:luminance" maskUnits="userSpaceOnUse" x="9" y="10" width="34" height="34">
<path d="M9.58252 10.6874H42.7722V43.8771H9.58252V10.6874Z" fill="white"/>
</mask>
<g mask="url(#mask1_1739_14309)">
<path d="M39.811 23.2538H32.656C32.3553 23.2538 32.1148 23.4943 32.1148 23.795C32.1148 24.0881 32.3553 24.3286 32.656 24.3286H39.811C40.8331 24.3286 41.6749 25.1478 41.6749 26.1474V37.2632C41.6749 38.2704 40.8407 39.0896 39.811 39.0896H38.2853C37.9847 39.0896 37.7366 39.3301 37.7366 39.6232V42.1936L34.1215 39.2098C34.0238 39.1347 33.8961 39.0896 33.7683 39.0896H24.3886C23.3589 39.0896 22.5247 38.2704 22.5247 37.2632V27.5904H27.9586C29.5895 27.5904 30.9123 26.2902 30.9123 24.6969V13.581C30.9123 11.9877 29.5895 10.6874 27.9586 10.6874H12.5362C10.9128 10.6874 9.58252 11.9877 9.58252 13.581V24.6969C9.58252 26.2902 10.9128 27.5904 12.5362 27.5904H13.5133V30.7771C13.5133 30.9876 13.641 31.1755 13.8289 31.2656C13.9041 31.2957 13.9868 31.3107 14.0619 31.3107C14.1897 31.3107 14.3175 31.2732 14.4152 31.1905L18.7818 27.5904H21.4349V37.2632C21.4349 38.8566 22.7577 40.1568 24.3886 40.1568H33.5729L37.932 43.7569C38.0373 43.8396 38.1575 43.8771 38.2853 43.8771C38.368 43.8771 38.4431 43.8621 38.5183 43.832C38.7137 43.7419 38.8339 43.554 38.8339 43.3435V40.1568H39.811C41.4419 40.1568 42.7647 38.8566 42.7647 37.2632V26.1474C42.7647 24.5541 41.4419 23.2538 39.811 23.2538ZM18.5789 26.5232C18.4511 26.5232 18.3234 26.5683 18.2257 26.6434L14.6106 29.6272V27.0568C14.6106 26.7637 14.3626 26.5232 14.0619 26.5232H12.5362C11.5141 26.5232 10.6798 25.704 10.6798 24.6969V13.581C10.6798 12.5814 11.5141 11.7622 12.5362 11.7622H27.9586C28.9883 11.7622 29.8225 12.5814 29.8225 13.581V24.6969C29.8225 25.704 28.9883 26.5232 27.9586 26.5232H18.5789Z" fill="#F5F5F5"/>
</g>
<path d="M17.2264 15.3247H27.1021C27.4028 15.3247 27.6508 15.0842 27.6508 14.7911C27.6508 14.498 27.4028 14.2575 27.1021 14.2575H17.2264C16.9258 14.2575 16.6777 14.498 16.6777 14.7911C16.6777 15.0842 16.9258 15.3247 17.2264 15.3247Z" fill="#F5F5F5"/>
<path d="M13.4007 15.3247H14.9715C15.2721 15.3247 15.5202 15.0842 15.5202 14.7911C15.5202 14.498 15.2721 14.2575 14.9715 14.2575H13.4007C13.0926 14.2575 12.8521 14.498 12.8521 14.7911C12.8521 15.0842 13.1001 15.3247 13.4007 15.3247Z" fill="#F5F5F5"/>
<path d="M13.4007 19.6764H27.102C27.4026 19.6764 27.6506 19.4359 27.6506 19.1428C27.6506 18.8421 27.4026 18.6091 27.102 18.6091H13.4007C13.0926 18.6091 12.8521 18.8421 12.8521 19.1428C12.8521 19.4359 13.1001 19.6764 13.4007 19.6764Z" fill="#F5F5F5"/>
<path d="M27.6506 23.4868C27.6506 23.1937 27.4026 22.9532 27.102 22.9532H13.4007C13.0926 22.9532 12.8521 23.1937 12.8521 23.4868C12.8521 23.7874 13.0926 24.0279 13.4007 24.0279H27.102C27.4026 24.0279 27.6506 23.7874 27.6506 23.4868Z" fill="#F5F5F5"/>
<path d="M27.0718 32.6485C27.0718 35.1137 29.1161 37.1129 31.6263 37.1129C34.1441 37.1129 36.1884 35.1137 36.1884 32.6485C36.1884 30.1834 34.1441 28.1842 31.6263 28.1842C29.1161 28.1842 27.0718 30.1834 27.0718 32.6485ZM31.6263 29.2514C33.5353 29.2514 35.0911 30.7771 35.0911 32.6485C35.0911 34.52 33.5353 36.0457 31.6263 36.0457C29.7173 36.0457 28.1616 34.52 28.1616 32.6485C28.1616 30.7771 29.7173 29.2514 31.6263 29.2514Z" fill="#F5F5F5"/>
<path d="M30.3036 33.5355C30.0856 33.7459 30.0856 34.0841 30.3036 34.2946C30.6644 34.6553 31.1454 34.8282 31.6264 34.8282C32.1074 34.8282 32.5884 34.6553 32.9567 34.2946C33.1671 34.0841 33.1671 33.7459 32.9567 33.5355C32.7387 33.325 32.393 33.325 32.1826 33.5355C31.8744 33.8361 31.3784 33.8361 31.0702 33.5355C30.8598 33.325 30.514 33.325 30.3036 33.5355Z" fill="#F5F5F5"/>
<path d="M30.4915 32.3254C30.7922 32.3254 31.0327 32.0924 31.0327 31.7918V31.4084C31.0327 31.1078 30.7922 30.8673 30.4915 30.8673C30.1909 30.8673 29.9429 31.1078 29.9429 31.4084V31.7918C29.9429 32.0849 30.1909 32.3254 30.4915 32.3254Z" fill="#F5F5F5"/>
<path d="M32.7689 32.3254C33.0695 32.3254 33.31 32.0924 33.31 31.7918V31.4084C33.31 31.1078 33.0695 30.8673 32.7689 30.8673C32.4682 30.8673 32.2202 31.1078 32.2202 31.4084V31.7918C32.2202 32.0849 32.4682 32.3254 32.7689 32.3254Z" fill="#F5F5F5"/>
</svg>
