<svg width="648" height="480" viewBox="0 0 648 480" fill="none" xmlns="http://www.w3.org/2000/svg">
<path d="M647.994 330.025H383.532V328.548H646.518V203.035H555.494V153.569H556.97V201.559H647.994V330.025Z" fill="#373133"/>
<path d="M118.578 316.587H117.101V231.583H73.0654V183.593H74.5415V230.107H118.578V316.587Z" fill="#373133"/>
<path d="M74.5415 111.485H73.0654V0H549.344V34.9959H547.868V1.47662H74.5415V111.485Z" fill="#373133"/>
<path d="M402.032 480H225.248C212.259 480 201.68 469.467 201.68 456.423V55.6194C201.68 42.6251 212.209 32.0427 225.248 32.0427H402.032C415.021 32.0427 425.6 42.5759 425.6 55.6194V456.423C425.6 469.467 415.021 480 402.032 480Z" fill="#DBDCF1"/>
<path d="M396.767 471.879H230.513C219.147 471.879 209.946 462.674 209.946 451.304V60.7875C209.946 49.4176 219.147 40.2133 230.513 40.2133H396.767C408.133 40.2133 417.334 49.4176 417.334 60.7875V451.304C417.334 462.674 408.133 471.879 396.767 471.879Z" fill="#373133"/>
<path d="M235.089 48.2363H259.837C260.231 56.0624 266.676 62.2642 274.598 62.2642H353.764C361.686 62.2642 368.132 56.0624 368.525 48.2363H393.274C402.475 48.2363 409.954 55.7178 409.954 64.9221V448.154C409.954 457.359 402.475 464.84 393.274 464.84H235.089C225.888 464.84 218.409 457.359 218.409 448.154V64.9221C218.409 55.7178 225.888 48.2363 235.089 48.2363Z" fill="white"/>
<path d="M334.133 49.8605H304.661V53.8474H334.133V49.8605Z" fill="white"/>
<path d="M296.985 54.9795C298.697 54.9795 300.085 53.5912 300.085 51.8786C300.085 50.166 298.697 48.7777 296.985 48.7777C295.273 48.7777 293.885 50.166 293.885 51.8786C293.885 53.5912 295.273 54.9795 296.985 54.9795Z" fill="white"/>
<path d="M58.8953 300.541H163.45C165.566 300.541 167.239 302.264 167.239 304.331V400.509C167.239 402.625 165.517 404.299 163.45 404.299H58.8953C56.7796 404.299 55.1067 402.576 55.1067 400.509V304.381C55.1067 302.264 56.7796 300.541 58.8953 300.541Z" fill="#DBDCF1"/>
<path d="M144.655 305.611H77.2478V310.533H144.655V305.611Z" fill="#AFAFD5"/>
<path d="M128.221 316.587H61.2571V397.063H128.221V316.587Z" fill="white"/>
<path d="M117.79 323.921H71.7371V327.859H117.79V323.921Z" fill="#DBDCF1"/>
<path d="M117.84 330.911H71.7864V334.848H117.84V330.911Z" fill="#DBDCF1"/>
<path d="M161.384 329.336H133.584V339.426H161.384V329.336Z" fill="#AFAFD5"/>
<path d="M161.384 365.562H133.584V380.82H161.384V365.562Z" fill="#AFAFD5"/>
<path d="M161.334 344.496H142.047V354.586H161.334V344.496Z" fill="#AFAFD5"/>
<path d="M161.384 356.751H149.87V360.246H161.384V356.751Z" fill="#AFAFD5"/>
<path d="M161.384 383.823H149.87V387.318H161.384V383.823Z" fill="#AFAFD5"/>
<path d="M144.999 383.774H133.486V387.268H144.999V383.774Z" fill="#AFAFD5"/>
<path d="M460.632 23.3798H637.071C640.663 23.3798 643.566 26.2838 643.566 29.877V159.573C643.566 163.167 640.663 166.071 637.071 166.071H460.632C457.04 166.071 454.137 163.167 454.137 159.573V29.877C454.137 26.2838 457.04 23.3798 460.632 23.3798Z" fill="#DBDCF1"/>
<path d="M576.454 55.8163H463.437V117.785H576.454V55.8163Z" fill="white"/>
<path d="M601.597 34.9959H483.56V42.4775H601.597V34.9959Z" fill="#AFAFD5"/>
<path d="M617.735 42.6743C619.854 42.6743 621.573 40.9555 621.573 38.8351C621.573 36.7148 619.854 34.9959 617.735 34.9959C615.615 34.9959 613.897 36.7148 613.897 38.8351C613.897 40.9555 615.615 42.6743 617.735 42.6743Z" fill="#AFAFD5"/>
<path d="M627.92 42.6743C630.039 42.6743 631.758 40.9555 631.758 38.8351C631.758 36.7148 630.039 34.9959 627.92 34.9959C625.8 34.9959 624.082 36.7148 624.082 38.8351C624.082 40.9555 625.8 42.6743 627.92 42.6743Z" fill="#AFAFD5"/>
<path d="M609.075 55.7178H583.195V76.2428H609.075V55.7178Z" fill="#AFAFD5"/>
<path d="M629.445 55.7178H613.897V59.4094H629.445V55.7178Z" fill="#AFAFD5"/>
<path d="M637.121 63.9869H613.897V67.6784H637.121V63.9869Z" fill="#AFAFD5"/>
<path d="M629.445 83.7736H613.897V87.4652H629.445V83.7736Z" fill="#AFAFD5"/>
<path d="M637.121 92.0427H613.897V95.7342H637.121V92.0427Z" fill="#AFAFD5"/>
<path d="M629.445 111.337H613.897V115.029H629.445V111.337Z" fill="#AFAFD5"/>
<path d="M637.121 119.606H613.897V123.298H637.121V119.606Z" fill="#AFAFD5"/>
<path d="M629.445 138.901H613.897V142.592H629.445V138.901Z" fill="#AFAFD5"/>
<path d="M637.121 147.17H613.897V150.861H637.121V147.17Z" fill="#AFAFD5"/>
<path d="M609.075 83.5767H583.195V104.102H609.075V83.5767Z" fill="#AFAFD5"/>
<path d="M609.075 111.436H583.195V131.961H609.075V111.436Z" fill="#AFAFD5"/>
<path d="M609.075 139.098H583.195V159.623H609.075V139.098Z" fill="#AFAFD5"/>
<path d="M540.733 123.741H462.698V130.336H540.733V123.741Z" fill="#AFAFD5"/>
<path d="M471.063 153.076C475.709 153.076 479.476 149.308 479.476 144.66C479.476 140.011 475.709 136.243 471.063 136.243C466.416 136.243 462.649 140.011 462.649 144.66C462.649 149.308 466.416 153.076 471.063 153.076Z" fill="#AFAFD5"/>
<path d="M514.656 136.243H486.611V142.297H514.656V136.243Z" fill="#AFAFD5"/>
<path d="M510.326 73.9295V99.7211L529.614 86.8253L510.326 73.9295Z" fill="#E8315D"/>
<path d="M477.115 34.9959H463.387V42.6743H477.115V34.9959Z" fill="#AFAFD5"/>
<path d="M4.3298 82.9368H150.707C153.118 82.9368 155.036 84.8564 155.036 87.2682V190.533C155.036 192.945 153.118 194.865 150.707 194.865H4.3298C1.91889 194.865 0 192.945 0 190.533V87.2682C0 84.8564 1.91889 82.9368 4.3298 82.9368Z" fill="#DBDCF1"/>
<path d="M119.069 90.8121H24.7979V98.7859H119.069V90.8121Z" fill="#AFAFD5"/>
<path d="M13.3338 98.7859C15.5348 98.7859 17.3192 97.0009 17.3192 94.799C17.3192 92.5971 15.5348 90.8121 13.3338 90.8121C11.1327 90.8121 9.34839 92.5971 9.34839 94.799C9.34839 97.0009 11.1327 98.7859 13.3338 98.7859Z" fill="#AFAFD5"/>
<path d="M142.441 98.7859C144.642 98.7859 146.426 97.0009 146.426 94.799C146.426 92.5971 144.642 90.8121 142.441 90.8121C140.24 90.8121 138.455 92.5971 138.455 94.799C138.455 97.0009 140.24 98.7859 142.441 98.7859Z" fill="#AFAFD5"/>
<path d="M50.4815 113.06H7.67554V140.623H50.4815V113.06Z" fill="#AFAFD5"/>
<path d="M40.5427 144.61H7.67554V149.385H40.5427V144.61Z" fill="#AFAFD5"/>
<path d="M100.274 113.06H57.4683V140.623H100.274V113.06Z" fill="#AFAFD5"/>
<path d="M90.3354 144.61H57.4683V149.385H90.3354V144.61Z" fill="#AFAFD5"/>
<path d="M150.067 113.06H107.261V140.623H150.067V113.06Z" fill="#AFAFD5"/>
<path d="M50.4815 158.737H7.67554V186.3H50.4815V158.737Z" fill="#AFAFD5"/>
<path d="M100.274 158.737H57.4683V186.3H100.274V158.737Z" fill="#AFAFD5"/>
<path d="M150.067 158.737H107.261V186.3H150.067V158.737Z" fill="#AFAFD5"/>
<path d="M140.128 144.61H107.261V149.385H140.128V144.61Z" fill="#AFAFD5"/>
<path d="M609.666 303.888C609.666 303.888 605.73 310.779 609.666 316.44H525.924V303.888H609.666Z" fill="#DBDCF1"/>
<path d="M611.044 316.883C611.044 317.178 610.896 317.473 610.699 317.67C610.502 317.867 610.207 318.015 609.912 318.015H485.332C483.068 318.015 481.248 316.194 481.248 313.929V306.842C481.248 304.578 483.068 302.756 485.332 302.756H609.912C610.551 302.756 611.044 303.249 611.044 303.888C611.044 304.528 610.551 305.021 609.912 305.021H532.517C530.991 305.021 529.761 306.251 529.761 307.777V313.043C529.761 314.569 530.991 315.8 532.517 315.8H609.912C610.551 315.751 611.044 316.243 611.044 316.883Z" fill="#EE504F"/>
<path d="M610.994 316.686C611.044 317.08 610.945 317.424 610.699 317.719C610.502 317.916 610.207 318.064 609.912 318.064H531.779C529.171 318.064 527.104 315.948 527.104 313.388V307.482C527.104 304.873 529.22 302.806 531.779 302.806H609.863C610.453 302.806 610.994 303.249 611.044 303.839C611.093 304.528 610.601 305.07 609.912 305.07H532.517C530.991 305.07 529.761 306.3 529.761 307.826V313.093C529.761 314.619 530.991 315.849 532.517 315.849H609.863C610.404 315.751 610.896 316.144 610.994 316.686Z" fill="#D34848"/>
<path d="M609.174 342.625C609.174 342.625 605.041 353.06 609.174 362.313H546.244V342.625H609.174Z" fill="#DBDCF1"/>
<path d="M611.437 362.609C611.486 363.052 611.29 363.495 610.994 363.79C610.699 364.085 610.355 364.233 609.912 364.233H477.066C473.572 364.233 470.719 361.378 470.719 357.884V346.907C470.719 343.413 473.572 340.558 477.066 340.558H609.912C610.699 340.558 611.437 341.198 611.437 341.985C611.437 342.822 610.797 343.511 609.961 343.511H553.526C550.672 343.511 548.36 345.824 548.36 348.679V356.013C548.36 358.868 550.672 361.181 553.526 361.181H609.863C610.65 361.181 611.388 361.772 611.437 362.609Z" fill="#197A83"/>
<path d="M611.437 362.609C611.486 363.052 611.29 363.495 610.994 363.79C610.699 364.085 610.355 364.233 609.912 364.233H552.148C548.261 364.233 545.063 361.083 545.063 357.145V347.646C545.063 343.757 548.212 340.558 552.148 340.558H609.912C610.699 340.558 611.437 341.198 611.437 341.985C611.437 342.822 610.797 343.511 609.961 343.511H553.526C550.672 343.511 548.36 345.824 548.36 348.679V356.013C548.36 358.868 550.672 361.181 553.526 361.181H609.863C610.65 361.181 611.388 361.772 611.437 362.609Z" fill="#156468"/>
<path d="M604.204 347.301H569.074V347.547H604.204V347.301Z" fill="#373133"/>
<path d="M589.247 347.301L591.805 359.065L594.512 354.783V348.187L589.247 347.301Z" fill="#AFAFD5"/>
<path d="M602.236 350.353V359.016L597.119 355.176L591.805 359.016V350.304C591.805 348.187 589.247 347.301 589.247 347.301H600.514C602.236 347.793 602.236 350.107 602.236 350.353Z" fill="#6D68E0"/>
<path d="M602.236 350.353H591.805V350.304C591.805 348.187 589.247 347.301 589.247 347.301H600.514C602.236 347.793 602.236 350.107 602.236 350.353Z" fill="#5A5ABA"/>
<path d="M476.82 319.147C476.82 319.147 481.002 330.566 476.82 339.18H559.43V319.147H476.82Z" fill="#DBDCF1"/>
<path d="M616.259 325.496V333.027C616.259 337.211 612.864 340.607 608.682 340.607H476.967C476.328 340.607 475.786 340.066 475.786 339.426V339.377C475.786 338.737 476.328 338.195 476.967 338.195H551.853C554.854 338.195 557.265 335.783 557.265 332.781V325.792C557.265 322.789 554.854 320.377 551.853 320.377H476.967C476.623 320.377 476.328 320.23 476.131 320.033C475.885 319.787 475.786 319.491 475.786 319.098C475.836 318.458 476.377 318.015 477.016 318.015H608.682C612.864 317.916 616.259 321.313 616.259 325.496Z" fill="#F1884F"/>
<path d="M560.611 324.758V333.765C560.611 337.555 557.561 340.607 553.772 340.607H476.918C476.279 340.607 475.737 340.066 475.737 339.426V339.377C475.737 338.737 476.279 338.195 476.918 338.195H551.804C554.805 338.195 557.216 335.783 557.216 332.781V325.792C557.216 322.789 554.805 320.377 551.804 320.377H476.918C476.574 320.377 476.279 320.23 476.082 320.033C475.836 319.787 475.737 319.491 475.737 319.098C475.787 318.458 476.328 318.015 476.967 318.015H553.772C557.561 317.916 560.611 321.017 560.611 324.758Z" fill="#D37146"/>
<path d="M519.478 332.486H484.348V332.732H519.478V332.486Z" fill="#373133"/>
<path d="M499.01 332.436H494.532V338.146H499.01V332.436Z" fill="#AFAFD5"/>
<path d="M496.353 337.408V355.521L491.433 351.14L486.759 355.521V338.146L496.353 337.408Z" fill="#A82329"/>
<path d="M499.01 332.436H489.465C489.465 332.436 489.465 336.719 486.759 338.146H496.304C496.304 338.146 499.01 337.408 499.01 332.436Z" fill="#EE504F"/>
<path d="M591.264 280.853C591.264 280.853 587.968 290.057 591.264 300.098H508.407V281.198L591.264 280.853Z" fill="#DBDCF1"/>
<path d="M512.295 278.244H591.412C592.298 278.244 593.036 278.983 593.036 279.869C593.036 280.755 592.298 281.493 591.412 281.493H513.082C510.819 281.493 508.998 283.314 508.998 285.578V295.226C508.998 297.49 510.819 299.311 513.082 299.311H591.412C592.298 299.311 593.036 300.049 593.036 300.935V301.034C593.036 301.92 592.298 302.658 591.412 302.658H512.295C508.998 302.658 506.341 300 506.341 296.702V284.053C506.341 280.902 508.998 278.244 512.295 278.244Z" fill="#6D68E0"/>
<path d="M580.686 293.7H545.555V293.946H580.686V293.7Z" fill="#373133"/>
<path d="M569.271 293.7H565.581V299.36H569.271V293.7Z" fill="#AFAFD5"/>
<path d="M568.139 298.671V313.437L572.518 309.057L576.996 313.437V299.36L568.139 298.671Z" fill="#156468"/>
<path d="M565.581 293.7H574.289C574.289 293.7 574.289 297.933 576.995 299.36H568.287C568.237 299.36 565.581 298.671 565.581 293.7Z" fill="#197A83"/>
<path d="M197.301 103.363H264.364C266.578 103.363 268.349 105.135 268.349 107.35V139.344C268.349 141.559 266.578 143.331 264.364 143.331H259.444V157.014L247.586 143.281H197.301C195.087 143.281 193.316 141.509 193.316 139.294V107.301C193.365 105.135 195.136 103.363 197.301 103.363Z" fill="#6D68E0"/>
<path d="M246.11 126.989C248.202 126.989 249.898 125.292 249.898 123.199C249.898 121.106 248.202 119.409 246.11 119.409C244.017 119.409 242.321 121.106 242.321 123.199C242.321 125.292 244.017 126.989 246.11 126.989Z" fill="white"/>
<path d="M230.464 126.989C232.556 126.989 234.252 125.292 234.252 123.199C234.252 121.106 232.556 119.409 230.464 119.409C228.371 119.409 226.675 121.106 226.675 123.199C226.675 125.292 228.371 126.989 230.464 126.989Z" fill="white"/>
<path d="M214.817 126.989C216.91 126.989 218.606 125.292 218.606 123.199C218.606 121.106 216.91 119.409 214.817 119.409C212.725 119.409 211.029 121.106 211.029 123.199C211.029 125.292 212.725 126.989 214.817 126.989Z" fill="white"/>
<path d="M486.168 219.229C487.3 225.775 478.985 231.534 478.985 231.534C474.852 242.756 466.438 245.414 466.438 245.414L422.5 364.479C422.5 364.479 416.99 372.847 404.787 370.976C402.573 370.632 400.162 369.943 397.506 368.86L359.029 347.744L392.339 290.648L410.101 304.774L413.89 297.687L445.871 237.736L449.217 221.395L465.405 199.541L488.382 171.485C493.106 178.917 484.938 186.891 484.938 186.891C483.068 191.911 476.623 202.986 476.623 202.986C478.05 202.543 478.935 202.789 480.165 203.626C485.676 207.367 484.052 210.566 484.052 210.566C489.465 214.996 486.168 219.229 486.168 219.229Z" fill="#FCBB9D"/>
<path d="M483.573 210.398L474.333 222.103L475.105 222.713L484.345 211.008L483.573 210.398Z" fill="#373133"/>
<path d="M486.482 217.643L479.897 225.156L480.637 225.805L487.222 218.291L486.482 217.643Z" fill="#373133"/>
<path d="M467.717 231.337L466.979 230.697C472.883 223.61 468.209 212.83 468.16 212.732L467.963 212.24L468.455 212.092C474.015 210.222 475.934 206.579 476.524 205.103L462.059 206.087L462.01 205.103L477.853 204.02L477.705 204.66C477.656 204.906 476.377 210.271 469.242 212.83C470.079 215.144 473.326 224.594 467.717 231.337Z" fill="#373133"/>
<path d="M359.029 394.504L364.786 465.382H302.939L292.606 405.825L359.029 394.504Z" fill="#311547"/>
<path d="M327.048 407.301L317.06 465.382H248.324L251.276 405.824L327.048 407.301Z" fill="#4F216C"/>
<path d="M306.333 208.843C306.333 208.843 297.526 206.284 297.625 191.764L306.087 193.093L306.333 208.843Z" fill="#373133"/>
<path d="M351.255 163.511C351.255 163.511 353.519 174.635 347.171 181.821L341.71 164.742L351.255 163.511Z" fill="#373133"/>
<path d="M349.09 201.066C348.893 217.654 341.07 220.755 338.069 221.296C337.331 221.444 336.888 221.444 336.888 221.444L337.134 229.713L337.774 253.486L299.937 249.549L303.234 198.113C303.234 198.113 295.214 196.981 293.738 187.482C292.901 182.067 293.442 179.36 297.674 178.326C308.056 175.669 314.599 159.77 314.599 159.77L346.483 161.493C346.483 161.493 349.287 187.875 349.09 201.066Z" fill="#FCBB9D"/>
<path d="M357.996 145.004C357.996 145.004 366.065 168.138 343.481 167.646L316.568 166.858C316.568 166.858 316.469 175.373 309.827 177.687L310.86 185.217C309.089 185.021 306.875 184.824 304.661 184.676C304.661 184.676 303.775 181.28 303.135 180.541C303.135 180.541 299.347 176.998 295.115 179.606C295.115 179.606 284.832 157.703 305.3 157.162C305.3 157.162 307.957 137.916 339.151 144.856C343.727 145.841 353.765 138.064 357.996 145.004Z" fill="#373133"/>
<path d="M337.183 230.55C337.183 230.55 337.282 261.362 299.396 228.384L252.211 246.743C243.748 250.582 237.844 258.458 236.515 267.662C236.515 267.662 233.12 290.156 228.889 316.883C228.348 320.181 227.954 324.02 227.659 327.367C227.413 330.025 256.442 326.875 256.246 329.532C253.785 361.034 249.849 414.192 249.849 414.192C313.812 424.528 363.113 409.467 363.113 409.467L361.637 350.402L383.778 360.738L403.213 287.793L394.455 273.569L379.694 249.549C376.201 243.839 370.69 239.655 364.245 237.736L337.183 230.55Z" fill="#197A83"/>
<path d="M357.307 290.5C357.307 290.5 359.423 276.62 383.729 278.983C404.738 281.001 410.15 291.19 410.15 291.19L357.307 290.5Z" fill="#DBDCF1"/>
<path d="M355.29 289.171C355.29 288.482 359.374 284.446 351.206 274.947C343.088 265.447 326.851 257.326 326.851 257.326L314.649 264.118L355.29 289.171Z" fill="#DBDCF1"/>
<path d="M317.355 257.326L313.271 257.867L313.32 260.722L351.206 285.775L364.097 289.171L411.479 289.861L410.495 288.581L364.786 286.464L351.895 283.068L317.355 257.326Z" fill="#D37146"/>
<path d="M413.939 297.687L404.837 370.976C402.622 370.632 400.212 369.943 397.555 368.86L359.078 347.744L392.388 290.648L410.15 304.774L413.939 297.687Z" fill="#E6A68A"/>
<path d="M293.344 332.19L331.919 361.28L339.939 363.298L342.743 363.987L393.52 364.676L411.528 289.91L365.081 288.187L364.442 288.138L352.239 285.431L312.976 257.67L293.344 332.19Z" fill="#F1884F"/>
<path d="M341.759 299.311L314.649 281.05L312.632 289.861L338.364 309.5L341.759 299.311Z" fill="#D6E3F8"/>
<path d="M352.096 284.947L331.773 360.824L332.724 361.079L353.047 285.202L352.096 284.947Z" fill="#373133"/>
<path d="M364.308 287.677L341.966 364.217L342.91 364.493L365.252 287.953L364.308 287.677Z" fill="#373133"/>
<path d="M342.891 364.774L345.695 365.464L393.52 364.676L411.528 289.91L365.081 288.187L342.891 364.774Z" fill="#D37146"/>
<path d="M370.346 351.042L364.392 360.246L341.661 375.209C341.661 375.209 335.806 377.178 331.279 377.178L251.768 407.301C229.873 412.765 223.083 399.278 223.083 399.278C217.228 388.597 223.624 347.301 226.872 328.745C227.856 323.183 228.545 319.639 228.545 319.639H270.81L269.678 324.66L259.985 367.334L317.01 358.277L315.731 342.724L318.339 325.841C318.339 325.841 323.554 324.561 324.834 332.338L326.113 342.724L337.823 327.76L349.681 318.458C351.354 317.129 353.814 317.424 355.142 319.147C356.372 320.722 356.176 322.986 354.749 324.364L344.908 333.569L340.332 342.034L350.074 332.929L359.275 324.217C360.653 322.937 362.818 322.937 364.146 324.266C365.376 325.496 365.524 327.465 364.491 328.843L356.569 339.426L350.074 348.532L357.209 342.674L364.195 334.651C365.278 333.372 367.246 333.421 368.328 334.701C369.067 335.587 369.165 336.817 368.624 337.801L361.096 351.091L355.241 356.308L361.096 353.7L365.376 347.695C366.508 346.12 368.771 346.021 370.051 347.498C370.936 348.482 371.035 349.959 370.346 351.042Z" fill="#FCBB9D"/>
<path d="M270.76 319.59L269.629 324.61L226.823 328.696C227.807 323.134 228.496 319.59 228.496 319.59H270.76Z" fill="#E6A68A"/>
<path d="M336.888 221.444L337.134 229.713C320.553 224.692 315.633 208.696 315.633 208.696C320.799 217.408 330.492 220.41 338.118 221.345C337.331 221.444 336.888 221.444 336.888 221.444Z" fill="#E6A68A"/>
<path d="M276.499 292.713L270.098 319.268L271.533 319.614L277.934 293.059L276.499 292.713Z" fill="#373133"/>
<path d="M330.639 204.512H345.4C345.4 204.512 340.972 213.372 330.639 204.512Z" fill="white"/>
</svg>
