<svg width="81" height="63" viewBox="0 0 81 63" fill="none" xmlns="http://www.w3.org/2000/svg">
<mask id="mask0_1598_17655" style="mask-type:luminance" maskUnits="userSpaceOnUse" x="2" y="0" width="79" height="63">
<path d="M2.75879 0H80.9713V62.9776H2.75879V0Z" fill="white"/>
</mask>
<g mask="url(#mask0_1598_17655)">
<path d="M64.3307 55.9928C63.6454 56.4584 62.9425 56.9153 62.2045 57.3546C61.159 57.9784 60.0783 58.5495 58.9713 59.0679C52.786 61.9584 45.1071 63.4784 35.7852 62.6965C34.0719 62.5559 32.3147 62.3274 30.496 62.0287C28.3083 61.6597 26.0503 61.1765 23.7045 60.5615C21.6134 60.0167 19.6542 59.1821 17.8179 58.0487C17.4489 57.829 17.0887 57.6006 16.7372 57.3546C16.6582 57.2931 16.5791 57.2404 16.5 57.1877C15.2612 56.3003 14.119 55.3075 13.0735 54.2092C13.0032 54.1302 12.9241 54.0599 12.8538 53.9808C12.6254 53.7348 12.397 53.4888 12.1773 53.2252C11.6677 52.6365 11.1757 52.0215 10.7189 51.3802C6.46647 45.5287 4.2612 37.8059 4.31391 30.2148C4.36663 22.0263 7.05513 14.0047 12.6254 8.65411C16.2452 5.07823 20.5064 2.57423 25.4002 1.13334C26.1558 0.913691 26.9026 0.737971 27.6494 0.588611C31.1725 -0.096694 34.6957 -0.140623 38.2277 0.456822C41.7596 1.05427 45.0719 2.24915 48.1646 4.04149C48.9465 4.51593 49.6933 5.02551 50.4138 5.5966C50.8706 5.96561 51.3099 6.35219 51.7317 6.76513C57.8994 12.9768 75.5504 10.4201 78.9593 24.8115C80.9186 33.1054 76.5959 47.4704 64.3307 55.9928Z" fill="#E4EAED"/>
</g>
<path d="M66.8085 24.6972L64.3308 55.9927C63.6455 56.4584 62.9426 56.9153 62.2046 57.3546C61.1591 57.9784 60.0784 58.5494 58.9714 59.0678C52.7861 61.9584 45.1072 63.4784 35.7853 62.6964C35.6096 62.2659 35.5481 61.809 35.5832 61.3434L38.4914 24.6972C38.5353 24.2667 38.6495 23.8625 38.8428 23.476C39.0361 23.0894 39.2909 22.7467 39.6072 22.4568C39.9235 22.1669 40.2837 21.9384 40.6878 21.7803C41.0832 21.6221 41.5049 21.5343 41.9354 21.5255H63.874C64.2869 21.5255 64.6823 21.5958 65.0688 21.7627C65.4466 21.9209 65.7805 22.1581 66.0617 22.4568C66.3428 22.7643 66.5449 23.107 66.6767 23.4935C66.8085 23.8889 66.8524 24.2843 66.8085 24.6972Z" fill="#7D95A9"/>
<path d="M61.7038 24.6973L58.9713 59.0679C52.786 61.9584 45.1071 63.4784 35.7852 62.6965C34.072 62.5559 32.3148 62.3275 30.4961 62.0287C30.4609 61.8003 30.4522 61.5719 30.4697 61.3434L33.3779 24.6973C33.4218 24.2667 33.536 23.8626 33.7293 23.476C33.9226 23.0894 34.1774 22.7468 34.4937 22.4568C34.81 22.1669 35.1702 21.9385 35.5744 21.7803C35.9785 21.6222 36.3914 21.5343 36.8307 21.5255H58.7605C59.1734 21.5167 59.5688 21.5958 59.9554 21.7628C60.3331 21.9209 60.667 22.1581 60.9482 22.4568C61.2293 22.7556 61.4314 23.107 61.5632 23.4936C61.695 23.889 61.7389 24.2843 61.7038 24.6973Z" fill="#B8C4D1"/>
<path d="M34.6342 46.1613C34.6342 46.1613 33.8171 48.4896 32.877 51.0726V51.0814C32.7803 51.345 32.6837 51.6174 32.5783 51.8897C32.5168 52.0654 32.4553 52.2324 32.3938 52.4081C32.1741 53.0231 31.9545 53.6293 31.7348 54.218C31.5152 54.8154 31.3043 55.3865 31.111 55.8961C31.0144 56.1509 30.9177 56.4057 30.8299 56.6253V56.6341C30.8123 56.6781 30.7947 56.722 30.7771 56.7659C30.7332 56.8889 30.6893 57.0031 30.6454 57.1173C30.6102 57.2052 30.5751 57.2843 30.5487 57.3546C30.5399 57.3721 30.5399 57.3809 30.5311 57.3985C30.4784 57.5215 30.4345 57.6269 30.3994 57.7236C30.3818 57.7499 30.373 57.7763 30.3642 57.7939C30.3203 57.8993 30.2851 57.9696 30.2588 58.0223C30.25 58.0311 30.25 58.0399 30.2412 58.0487C30.2148 58.0926 30.2061 58.1102 30.1973 58.1014C30.1446 58.0487 27.6757 58.0311 24.4513 58.0311C22.4041 58.0311 20.0495 58.0399 17.8179 58.0574C17.4489 57.829 17.0886 57.6006 16.7372 57.3546C16.6581 57.2931 16.5791 57.2404 16.5 57.1876C15.2612 56.3003 14.119 55.3074 13.0735 54.2092H9.58545L9.62059 53.7084L10.4201 53.559L12.1773 53.2252L12.9768 53.0846L17.1589 52.3027L19.7156 51.8282L22.861 51.2483C22.861 51.2483 24.4425 42.6557 25.9273 37.1645C27.0255 33.0614 29.6525 31.1725 30.9177 30.4784C31.1462 30.3554 31.3307 30.2675 31.4537 30.2148C31.5503 30.1709 31.603 30.1533 31.6206 30.1445L31.6382 30.2148L32.2356 32.9296L32.5695 34.4496L33.8874 40.4592L34.6342 46.1613Z" fill="#0C71C3"/>
<path d="M32.587 51.8897C31.4624 55 30.2763 58.1805 30.1972 58.1014C30.1445 58.0487 27.6756 58.0311 24.46 58.0311C25.6021 56.8538 26.6389 55.3426 26.9288 53.603C27.6668 49.1661 26.8234 42.3921 29.2922 38.2627L32.587 51.8897Z" fill="#0558AA"/>
<path d="M54.3674 57.7939L40.5823 57.5654L36.119 57.4951C36.1805 51.8985 36.9186 38.7811 37.0416 35.9344C37.0591 35.5918 37.0591 35.3985 37.0591 35.3809C37.0064 35.2316 33.0176 33.8873 34.2125 29.1341L35.9872 28.44L38.7372 27.3681L43.2532 26.6389C43.7365 27.0958 44.659 27.4824 45.7836 27.9129C46.0735 28.0183 46.3634 28.1325 46.671 28.2467C49.2189 29.1956 51.7668 31.1725 54.1039 32.8154C57.9345 35.5127 54.3674 57.7939 54.3674 57.7939Z" fill="white"/>
<path d="M45.7836 27.9129C45.3707 29.2132 42.8316 32.4376 40.1167 32.5343C37.6742 32.6134 36.0839 29.5646 35.9873 28.44L38.7373 27.3681L43.2533 26.6389C43.7365 27.0958 44.659 27.4824 45.7836 27.9129Z" fill="#FFD1BD"/>
<path d="M37.0414 35.9345C36.9184 38.7811 36.1804 51.8985 36.1189 57.4864L28.9847 57.3722C28.9847 57.3722 30.039 47.8921 30.039 47.4792C29.301 45.1685 27.8249 42.3482 28.9847 39.1501C30.1444 35.9608 31.6204 30.1445 31.6204 30.1445L33.0965 29.5735L34.2123 29.1342C33.0174 33.8874 37.0062 35.2316 37.0589 35.381C37.0589 35.3985 37.0589 35.5918 37.0414 35.9345Z" fill="#0C71C3"/>
<path d="M54.3672 57.7939L40.582 57.5654C40.5996 56.7923 40.626 55.817 40.6523 54.7188C40.6875 53.726 40.7138 52.6365 40.7665 51.4943C40.9862 45.6868 41.9175 38.2627 42.4974 36.3825C42.5764 36.1277 42.6379 35.9784 42.6994 35.9432C43.4111 35.5479 46.987 31.2252 46.6707 28.2467C46.9518 28.3522 47.233 28.4576 47.5229 28.5718C49.8951 29.4768 54.3935 32.2531 55.8959 34.3881C58.5932 38.21 54.3672 57.7939 54.3672 57.7939Z" fill="#0C71C3"/>
<path d="M45.0806 10.8506C46.5654 8.08304 50.1061 9.65573 50.2467 12.6605C50.3785 15.6653 49.6493 20.9281 50.0095 22.3953C50.3609 23.8714 46.8993 24.6973 46.8817 20.5591C46.8553 16.4121 46.3194 14.7252 46.3194 14.7252L45.0806 10.8506Z" fill="#EA5B42"/>
<path d="M37.9115 7.5734C28.8005 8.02148 31.2782 15.428 32.8069 17.1501C34.3445 18.8809 41.0481 20.2164 41.0481 20.2164L43.227 22.5359C43.227 22.5359 47.5058 20.19 48.1647 16.1309C48.8325 12.0718 45.529 8.88251 42.9195 8.75072L41.6016 8.06541L39.5457 7.50311L37.9115 7.5734Z" fill="#FF8163"/>
<path d="M43.7454 27.7197C43.5169 28.6685 41.3644 29.635 39.7741 29.5296C38.1751 29.4241 37.8763 28.9497 37.8763 28.9497C37.8763 28.3874 37.8412 27.8339 37.7621 27.2716C37.727 26.9553 37.6567 26.639 37.5513 26.3403L42.981 22.246L43.2006 22.0879C43.2006 22.0879 43.2006 22.2021 43.2182 22.4305C43.2533 23.0807 43.35 24.5831 43.5521 26.2612C43.6048 26.7356 43.6751 27.2276 43.7454 27.7197Z" fill="#FFD1BD"/>
<path d="M43.5521 26.2612C42.2166 27.1925 39.7038 27.5879 37.7709 27.2716C37.727 26.9553 37.6567 26.639 37.5513 26.3403L42.981 22.246C43.0601 22.2987 43.1391 22.3602 43.2182 22.4305C43.2533 23.0807 43.3588 24.5831 43.5521 26.2612Z" fill="#EF7A70"/>
<path d="M42.7175 17.3434C42.9108 18.5295 43.0865 20.48 43.4203 20.4624C43.8421 20.4361 43.6312 17.6509 45.362 17.7564C47.1017 17.853 46.7766 22.3338 43.8948 21.6134C43.8948 21.6134 42.489 25.734 39.1328 26.2875C37.6216 26.5335 34.529 26.5511 33.0705 22.4656C31.6208 18.3889 32.0601 15.3314 32.0601 15.3314C32.6224 13.6445 35.1967 13.7851 37.2965 13.5742C38.7199 13.3634 40.0026 12.8099 41.1272 11.9225C40.5737 16.087 42.7175 17.3434 42.7175 17.3434Z" fill="#FFD1BD"/>
<path d="M44.8085 20.7261C44.3165 20.6031 44.545 19.1446 45.2918 19.2061" stroke="#EF7A70" stroke-width="0.132461" stroke-miterlimit="10" stroke-linecap="round"/>
<path d="M47.3124 18.3625C47.3739 18.7579 47.3652 19.1445 47.2861 19.5223C47.207 19.9001 47.0752 20.2515 46.8731 20.5678C46.6711 20.8753 46.4251 21.1301 46.1263 21.3322C45.8364 21.5255 45.5201 21.6573 45.1775 21.71C44.826 21.7539 44.4834 21.7363 44.1495 21.6309C43.8069 21.5343 43.4906 21.3586 43.2094 21.1213C42.9195 20.8841 42.6823 20.5942 42.4977 20.2515C42.3132 19.9089 42.1902 19.5399 42.1287 19.1533C42.0672 18.7579 42.076 18.3713 42.1551 17.9935C42.2254 17.607 42.366 17.2643 42.568 16.948C42.7613 16.6317 43.0161 16.3769 43.3061 16.1836C43.6048 15.9816 43.9211 15.8586 44.2637 15.8058C44.6064 15.7531 44.949 15.7795 45.2917 15.8849C45.6343 15.9816 45.9418 16.1573 46.2318 16.3945C46.5129 16.6317 46.7501 16.9217 46.9347 17.2643C47.1279 17.607 47.2509 17.976 47.3124 18.3625Z" fill="#0A234E"/>
<path d="M43.2621 20.2165C43.183 21.8419 41.5928 22.9401 41.5928 22.9401" stroke="#0A234E" stroke-width="0.241519" stroke-linecap="round" stroke-linejoin="round"/>
<path d="M44.5533 16.4736C45.1859 10.631 41.4519 7.52073 37.9111 7.57345C39.6947 6.86179 43.2266 7.38894 44.7202 9.69086C46.2138 11.9928 46.3193 14.7604 45.8185 18.0375L44.5533 16.4736Z" fill="#0A234E"/>
<path d="M37.6125 54.0511C37.6125 54.0511 34.924 52.3466 33.1228 52.2675C31.3305 52.1885 28.9847 55.7731 29.1077 56.2827C29.2219 56.7923 31.5677 54.4377 31.515 54.5431C31.4623 54.6485 29.8808 56.5639 30.2235 56.8714C30.5661 57.1877 32.253 55.1757 32.253 55.1757C32.253 55.1757 31.3042 56.9768 31.6995 57.2667C32.0949 57.5567 33.5973 55.7731 33.5973 55.7731C33.5973 55.7731 32.7538 57.0119 32.912 57.3019C33.0701 57.583 34.0981 56.6869 34.0981 56.6869C34.0981 56.6869 35.0294 57.5303 37.4543 57.214L37.6125 54.0511Z" fill="#FFD1BD"/>
<path d="M48.9023 53.1813L45.6867 55.2284C45.6867 55.2284 42.6204 54.9297 40.6523 54.7188C40.6787 53.726 40.7138 52.6366 40.7666 51.4944C40.872 51.3538 40.995 51.2396 41.1444 51.143C41.8824 50.7212 46.8464 49.992 48.3752 48.103C49.9127 46.2228 49.7458 39.5719 50.0094 39.6773C50.273 39.7827 48.9023 53.1813 48.9023 53.1813Z" fill="#0558AA"/>
<path d="M36.5317 57.794C36.6372 55.4569 36.9535 52.663 37.0325 52.6366C37.1116 52.6102 52.4958 51.143 53.8137 51.9777C55.1316 52.8211 54.3672 57.794 54.3672 57.794H36.5317Z" fill="#0C71C3"/>
<path d="M48.4193 32.6485C48.4105 34.0718 44.1932 35.7587 42.4976 36.3825C42.5766 36.1277 42.6381 35.9784 42.6996 35.9432C43.4113 35.5479 46.9872 31.2252 46.6709 28.2467C46.952 28.3522 47.2332 28.4576 47.5231 28.5718C48.3841 29.6788 48.4369 31.313 48.4193 32.6485Z" fill="#0558AA"/>
<path d="M37.0415 35.9345C35.504 35.6709 32.4552 34.9065 32.2532 34.0191C32.0511 33.0966 32.508 30.9441 33.0966 29.5735L34.2124 29.1342C33.0175 33.8874 37.0064 35.2316 37.0591 35.381C37.0591 35.3985 37.0591 35.5918 37.0415 35.9345Z" fill="#0558AA"/>
<mask id="mask1_1598_17655" style="mask-type:luminance" maskUnits="userSpaceOnUse" x="0" y="29" width="37" height="28">
<path d="M0 29.2396H36.4968V56.23H0V29.2396Z" fill="white"/>
</mask>
<g mask="url(#mask1_1598_17655)">
<path d="M35.5744 53.4361C35.5919 53.647 35.5304 53.8315 35.3899 53.9808C35.2493 54.139 35.0648 54.2181 34.8539 54.2181H2.79401C2.57436 54.2093 2.38107 54.1302 2.22292 53.9808C2.05599 53.8315 1.96813 53.647 1.94177 53.4361L0.0264378 30.9968C8.16286e-05 30.7859 0.0615815 30.6014 0.210944 30.4433C0.351519 30.2852 0.527236 30.2061 0.746886 30.2149H32.798C32.8156 30.2149 32.8332 30.2149 32.8507 30.2149C33.0704 30.2236 33.2549 30.3115 33.413 30.4784C33.5536 30.619 33.6327 30.7947 33.6502 30.9968L33.7118 31.6821L34.0105 35.1613L35.3723 51.0727V51.0815L35.4689 52.2676L35.5304 52.9529L35.5744 53.4361Z" fill="#B8C4D1"/>
</g>
<path d="M20.2869 47.5934L19.7158 51.8283L19.6543 52.3027L19.3907 54.2093L19.1711 55.8962L18.9954 57.1877L18.969 57.3546H16.7374C16.6583 57.2931 16.5792 57.2404 16.5002 57.1877C15.2613 56.3003 14.1192 55.3075 13.0736 54.2093H12.8276L12.854 53.9808L12.9155 53.5591L12.977 53.0847L13.2054 51.3802L13.7326 47.4704C13.7677 47.1893 13.9259 47.0575 14.207 47.0575H19.8125C19.953 47.0575 20.076 47.1102 20.1727 47.2156C20.2693 47.3299 20.3045 47.4529 20.2869 47.5934Z" fill="#7D95A9"/>
<path d="M62.2046 57.3546C53.2605 62.6789 40.5999 64.9984 23.7046 60.5703C21.6135 60.0168 19.6542 59.1821 17.818 58.0575C17.449 57.8291 17.0887 57.6007 16.7373 57.3546H62.2046Z" fill="#D2DDE4"/>
<path d="M17.7562 55.8961H34.7307C34.9415 55.8961 35.0558 56.0015 35.0558 56.2124V57.0295C35.0558 57.2492 34.9415 57.3546 34.7307 57.3546H17.7562C17.5366 57.3546 17.4312 57.2492 17.4312 57.0295V56.2124C17.4312 56.0015 17.5366 55.8961 17.7562 55.8961Z" fill="#7D95A9"/>
</svg>
