<svg width="58" height="66" viewBox="0 0 58 66" fill="none" xmlns="http://www.w3.org/2000/svg">
<mask id="mask0_1598_17480" style="mask-type:luminance" maskUnits="userSpaceOnUse" x="0" y="0" width="58" height="61">
<path d="M0 0H57.1789V60.7284H0V0Z" fill="white"/>
</mask>
<g mask="url(#mask0_1598_17480)">
<path d="M57.1702 30.2676C57.1702 31.9545 57.012 33.6326 56.7133 35.2844C56.4146 36.9449 55.9665 38.5615 55.3778 40.143C54.7892 41.7245 54.0599 43.2356 53.1989 44.6853C52.3291 46.135 51.3451 47.4968 50.2381 48.7708C49.131 50.0448 47.9186 51.2133 46.6007 52.2676C45.2828 53.3307 43.877 54.262 42.3922 55.0703C40.9074 55.8786 39.3611 56.5464 37.762 57.0823C36.1542 57.6095 34.5112 57.996 32.8331 58.242C31.4976 58.4265 30.1446 58.5232 28.7828 58.5232C28.3347 58.5232 27.8866 58.5144 27.4385 58.4968C26.9377 58.4705 26.4457 58.4353 25.9537 58.3826C24.7676 58.2684 23.5991 58.0751 22.4393 57.8115C18.9337 57.012 15.6917 55.5975 12.7309 53.5679C12.1861 53.1989 11.6678 52.8123 11.1582 52.4082C10.7013 52.048 10.2532 51.6702 9.82271 51.2836C9.70849 51.1869 9.59427 51.0815 9.48006 50.9761C9.43613 50.9321 9.3922 50.8882 9.33948 50.8443C9.15498 50.6686 8.97047 50.5016 8.79475 50.3171C8.25881 49.79 7.74044 49.2364 7.24843 48.6654C6.51041 47.8043 5.81632 46.8994 5.18373 45.9593C4.55114 45.0192 3.98006 44.0352 3.47047 43.0248C2.9521 42.0144 2.50402 40.9689 2.10865 39.9058C1.72207 38.8427 1.39699 37.7532 1.1422 36.6462C0.887405 35.5479 0.694114 34.4233 0.57111 33.2987C0.448108 32.1741 0.39539 31.0408 0.412963 29.9074C0.430534 28.774 0.509607 27.6406 0.658969 26.516C0.80833 25.3914 1.02798 24.2844 1.31792 23.1861C1.59907 22.0879 1.9505 21.0072 2.37223 19.9529C2.78517 18.8986 3.2684 17.8706 3.80434 16.869C4.34907 15.8674 4.94651 14.9098 5.60546 13.9785C6.25562 13.0559 6.96728 12.1685 7.73166 11.3251C8.49603 10.4816 9.31312 9.69091 10.1741 8.9441C11.0352 8.20609 11.9313 7.512 12.8802 6.87941C13.8203 6.23804 14.7956 5.66695 15.8147 5.14858C16.8251 4.62142 17.8706 4.17334 18.9337 3.77797C20.0056 3.3826 21.0951 3.04874 22.2021 2.79395C23.3091 2.53037 24.4337 2.32829 25.5671 2.20529C26.6917 2.0735 27.8339 2.01199 28.9673 2.02078C30.1095 2.02957 31.2428 2.09986 32.3762 2.24922C33.5096 2.38979 34.6254 2.60065 35.7325 2.87302C36.8307 3.15417 37.9202 3.49682 38.9833 3.90097C40.0464 4.31391 41.0831 4.77957 42.0847 5.31551C43.0951 5.84267 44.0703 6.44011 45.0016 7.08149C45.9329 7.73165 46.8291 8.43452 47.6813 9.19011C48.5336 9.9457 49.3331 10.7452 50.0887 11.5975C50.8355 12.4497 51.5384 13.3459 52.1797 14.2772C52.8299 15.2173 53.4098 16.1837 53.9457 17.1941C54.4729 18.1957 54.9385 19.2324 55.3339 20.2955C55.7381 21.3499 56.0719 22.4393 56.3443 23.5376C56.6166 24.6358 56.8275 25.7516 56.9593 26.8762C57.0999 28.0096 57.1614 29.1342 57.1614 30.2676H57.1702Z" fill="#E7EEF7"/>
</g>
<path d="M51.468 47.2509C49.1133 50.3699 46.2315 52.8914 42.8226 54.8243C42.3481 55.0967 41.8649 55.3515 41.3729 55.5975C41.1005 55.7381 40.8106 55.8699 40.5295 55.9929C38.0782 57.1087 35.5127 57.8555 32.833 58.2421C31.4975 58.4266 30.1445 58.5232 28.7826 58.5232C28.3346 58.5232 27.8865 58.5144 27.4384 58.4969C26.9376 58.4705 26.4456 58.4354 25.9536 58.3826C24.7675 58.2684 23.5989 58.0751 22.4392 57.8116C18.9336 57.012 15.6916 55.5975 12.7307 53.5679C12.186 53.1989 11.6676 52.8124 11.158 52.4082C10.7012 52.048 10.2531 51.6702 9.82258 51.2836C9.70836 51.187 9.59415 51.0815 9.47993 50.9761C9.436 50.9322 9.39207 50.8882 9.33936 50.8443C9.39207 50.7125 9.436 50.5807 9.47993 50.4401C9.4975 50.405 9.51507 50.3611 9.52386 50.3171C9.62051 50.0448 9.71715 49.7636 9.82258 49.4737C10.4112 47.7604 11.0263 45.8187 11.5798 43.8331C11.6501 43.5783 11.7467 43.3323 11.8697 43.0951C12.3178 42.1901 13.091 41.4258 14.0838 40.7932C14.5143 40.512 14.9711 40.266 15.4368 40.0464C20.4184 37.6917 28.2731 37.5248 28.2731 37.5248H32.7451C32.7451 37.5248 44.6588 39.0624 48.3489 41.9354C49.9304 43.1654 50.8881 45.2564 51.468 47.2509Z" fill="white"/>
<path d="M42.8224 54.8243C42.348 55.0967 41.8648 55.3515 41.3727 55.5975C41.1004 55.7381 40.8104 55.8698 40.5293 55.9928C40.7753 53.401 41.4606 46.5655 41.5836 47.1805C41.7066 47.7604 42.4973 52.6103 42.8224 54.8243Z" fill="#E7EEF7"/>
<mask id="mask1_1598_17480" style="mask-type:luminance" maskUnits="userSpaceOnUse" x="8" y="38" width="22" height="28">
<path d="M8.99707 38.2365H29.2399V65.4114H8.99707V38.2365Z" fill="white"/>
</mask>
<g mask="url(#mask1_1598_17480)">
<path d="M10.7453 40.0464H26.516C26.7708 40.0464 26.9905 40.1342 27.1662 40.3188C27.3507 40.4945 27.4386 40.7141 27.4386 40.9689V64.4889C27.4386 64.7437 27.3507 64.9545 27.1662 65.139C26.9905 65.3148 26.7708 65.4114 26.516 65.4114H10.7453C10.4905 65.4114 10.2708 65.3148 10.0951 65.139C9.91061 64.9545 9.82275 64.7437 9.82275 64.4889V40.9689C9.82275 40.7141 9.91061 40.4945 10.0951 40.3188C10.2708 40.1342 10.4905 40.0464 10.7453 40.0464Z" fill="#C62A10"/>
</g>
<path d="M10.3498 40.7932H25.0926C25.3298 40.7932 25.5319 40.881 25.6988 41.048C25.8746 41.2149 25.9536 41.417 25.9536 41.6542V63.7948C25.9536 64.0408 25.8746 64.2429 25.6988 64.4098C25.5319 64.5767 25.3298 64.6646 25.0926 64.6646H10.3498C10.1126 64.6646 9.91049 64.5767 9.73478 64.4098C9.56784 64.2429 9.48877 64.0408 9.48877 63.7948V41.6542C9.48877 41.417 9.56784 41.2149 9.73478 41.048C9.91049 40.881 10.1126 40.7932 10.3498 40.7932Z" fill="white"/>
<mask id="mask2_1598_17480" style="mask-type:luminance" maskUnits="userSpaceOnUse" x="4" y="38" width="19" height="28">
<path d="M4.49854 38.2365H22.4921V65.4114H4.49854V38.2365Z" fill="white"/>
</mask>
<g mask="url(#mask2_1598_17480)">
<path d="M5.74625 40.0464H21.5082C21.7718 40.0464 21.9827 40.1342 22.1672 40.3188C22.3517 40.4945 22.4395 40.7141 22.4395 40.9689V64.4889C22.4395 64.7437 22.3517 64.9545 22.1672 65.139C21.9827 65.3148 21.7718 65.4114 21.5082 65.4114H5.74625C5.49146 65.4114 5.27181 65.3148 5.08731 65.139C4.91159 64.9545 4.81494 64.7437 4.81494 64.4889V40.9689C4.81494 40.7141 4.91159 40.4945 5.08731 40.3188C5.27181 40.1342 5.49146 40.0464 5.74625 40.0464Z" fill="#FF6342"/>
</g>
<path d="M8.17985 43.0951H19.0832C19.338 43.0951 19.5576 43.1917 19.7334 43.3674C19.9179 43.5431 20.0057 43.7628 20.0057 44.0176V49.3946C20.0057 49.6494 19.9179 49.869 19.7334 50.0447C19.5576 50.2292 19.338 50.3171 19.0832 50.3171H8.17985C7.92505 50.3171 7.7054 50.2292 7.5209 50.0447C7.34518 49.869 7.24854 49.6494 7.24854 49.3946V44.0176C7.24854 43.7628 7.34518 43.5431 7.5209 43.3674C7.7054 43.1917 7.92505 43.0951 8.17985 43.0951Z" fill="#FF9280"/>
<path d="M7.83719 52.4081H19.4171C19.584 52.4081 19.7158 52.4608 19.83 52.575C19.9442 52.6893 20.0057 52.8298 20.0057 52.988C20.0057 53.1461 19.9442 53.2867 19.83 53.4009C19.7158 53.5151 19.584 53.5679 19.4171 53.5679H7.83719C7.67905 53.5679 7.53847 53.5151 7.42425 53.4009C7.31004 53.2867 7.24854 53.1461 7.24854 52.988C7.24854 52.8298 7.31004 52.6893 7.42425 52.575C7.53847 52.4608 7.67905 52.4081 7.83719 52.4081Z" fill="#FF9280"/>
<path d="M41.3731 55.5975C38.6758 56.933 35.8291 57.8116 32.8331 58.2421C31.0144 56.5552 28.8619 53.9985 28.6159 53.8755C28.4929 53.8139 28.0272 53.8403 27.4386 53.8842C26.9817 53.9106 26.4457 53.9457 25.9537 53.937C25.1718 53.9282 24.4865 53.8227 24.3723 53.4449C24.2229 52.9529 25.1015 52.4433 25.9537 52.0655C26.6039 51.7844 27.2365 51.5823 27.4034 51.5296C27.2365 51.5735 26.6215 51.7229 25.9537 51.8283C25.0049 51.9865 23.9417 52.0568 23.8802 51.6087C23.81 51.1167 24.9785 50.4841 25.9537 50.0536C26.5863 49.7636 27.1311 49.5616 27.2189 49.5264C27.1311 49.544 26.5951 49.6055 25.9537 49.6406C24.9434 49.6933 23.6957 49.667 23.6957 49.1925C23.6957 48.7093 24.9521 48.2612 25.9537 47.9889C26.56 47.8219 27.0608 47.7165 27.1574 47.6901C27.0608 47.7077 26.5687 47.778 25.9537 47.8395C24.7588 47.9449 23.1247 47.9889 23.1422 47.3826C23.1598 46.8203 24.548 46.2756 25.9537 46.056C26.4457 45.9681 26.9465 45.933 27.4386 45.9505C27.7988 45.9505 28.1326 46.0208 28.4577 46.1614C29.7844 46.8028 31.7876 49.79 32.5695 50.6862C33.2021 51.4154 39.1239 54.4553 41.3731 55.5975Z" fill="#D67268"/>
<path d="M21.561 26.7707C19.303 25.1981 20.1904 22.2636 20.1904 22.2636C20.1904 22.2636 19.426 23.7747 18.8285 22.8698C18.2223 21.9736 18.2838 18.9073 21.807 16.8602C23.898 15.6214 26.1472 14.8922 28.5722 14.6725C28.5722 14.6725 27.061 14.5759 27.2455 14.1014C27.43 13.627 29.4595 12.8011 32.4643 14.2156C35.4603 15.6214 36.0841 19.127 36.0841 19.127C36.0841 19.127 39.2383 19.9001 39.0274 22.9225C38.8078 25.9361 36.4883 33.1406 31.7966 31.5767" fill="#592034"/>
<path d="M31.1639 41.0919C28.0273 41.3994 27.5704 39.0623 27.5704 39.0623C27.5704 39.0623 27.5441 38.7284 27.465 38.131C27.3332 37.1294 27.0609 35.3898 26.5776 33.3251L31.981 30.5487L33.4219 29.8107C33.4219 29.8107 33.4834 30.3554 33.5712 31.1637C33.8085 33.1757 34.2478 36.8131 34.485 37.3842C34.8189 38.1837 34.2917 40.7843 31.1639 41.0919Z" fill="#D67268"/>
<path d="M33.5712 31.1638C33.5712 31.1638 31.7789 35.8291 27.465 38.131C27.3332 37.1294 27.0609 35.3898 26.5776 33.3251L31.981 30.5487L33.5712 31.1638Z" fill="#B24B46"/>
<path d="M21.1128 20.9545C24.9962 24.1965 33.0968 23.6518 33.0968 23.6518C33.0968 23.6518 33.0441 28.6158 33.7733 28.9233C34.5025 29.2396 34.3444 25.9625 36.6463 25.8219C38.9394 25.6813 38.4474 29.5559 36.822 30.4872C35.1966 31.4097 34.362 29.7228 34.362 29.7228C34.362 29.7228 31.7525 35.7149 26.7533 35.7149C22.9051 35.7149 21.1831 31.8315 21.1128 30.5224C20.937 27.1573 21.1128 20.9545 21.1128 20.9545Z" fill="#D67268"/>
</svg>
